<?xml version="1.0" encoding="UTF-8" standalone="no"?>
<!-- Created with Inkscape (http://www.inkscape.org/) -->

<svg
   xmlns:dc="http://purl.org/dc/elements/1.1/"
   xmlns:cc="http://creativecommons.org/ns#"
   xmlns:rdf="http://www.w3.org/1999/02/22-rdf-syntax-ns#"
   xmlns:svg="http://www.w3.org/2000/svg"
   xmlns="http://www.w3.org/2000/svg"
   xmlns:sodipodi="http://sodipodi.sourceforge.net/DTD/sodipodi-0.dtd"
   xmlns:inkscape="http://www.inkscape.org/namespaces/inkscape"
   width="400"
   height="400"
   id="svg2"
   version="1.1"
   inkscape:version="0.48.3.1 r9886"
   sodipodi:docname="book.svg">
  <defs
     id="defs4" />
  <sodipodi:namedview
     id="base"
     pagecolor="#ffffff"
     bordercolor="#666666"
     borderopacity="1.0"
     inkscape:pageopacity="0.0"
     inkscape:pageshadow="2"
     inkscape:zoom="0.98994949"
     inkscape:cx="-118.63323"
     inkscape:cy="265.1809"
     inkscape:document-units="px"
     inkscape:current-layer="layer1"
     showgrid="false"
     inkscape:window-width="1680"
     inkscape:window-height="953"
     inkscape:window-x="0"
     inkscape:window-y="44"
     inkscape:window-maximized="1" />
  <metadata
     id="metadata7">
    <rdf:RDF>
      <cc:Work
         rdf:about="">
        <dc:format>image/svg+xml</dc:format>
        <dc:type
           rdf:resource="http://purl.org/dc/dcmitype/StillImage" />
        <dc:title></dc:title>
      </cc:Work>
    </rdf:RDF>
  </metadata>
  <g
     inkscape:label="Layer 1"
     inkscape:groupmode="layer"
     id="layer1"
     transform="translate(0,-652.36218)">
    <path
       style="fill:#ffffff;fill-opacity:1;stroke:none"
       d="m 26,687.46859 c 10.785668,-10.89757 26.601747,-3.7217 39.56631,-2.58505 28.004116,1.02954 57.90295,-10.34193 84.35437,3.42696 15.09147,7.11026 19.68951,29.04884 37.99469,30.44227 16.65713,-3.66259 22.06083,-24.56112 39.11057,-27.6957 30.99475,-12.2766 64.51183,-3.78343 96.33527,-0.5526 11.7699,4.42426 36.49534,-6.70587 38.05991,10.52996 -6.78438,12.76486 -22.40419,9.72297 -34.01578,13.2289 -37.7505,8.35438 -76.60127,18.74899 -107.28092,43.48121 -10.15419,7.6993 -23.6495,12.49614 -36.08974,7.51485 C 147.28346,756.29077 109.59623,751.22943 73.346335,740.27707 49.652896,733.41406 24.439604,714.75825 26,687.46859 z"
       id="path3911"
       inkscape:connector-curvature="0" />
    <g
       id="g2996"
       transform="matrix(0.15495373,0,0,0.23239763,167.52825,750.12538)">
      <path
         style="fill:#e6e6e6;fill-opacity:1"
         d="M 181.45902,1242.304 C 132.8542,1234.3341 92.58955,1219.531 53.045789,1195.0935 9.7449446,1168.3341 -8.4677342,1160.9315 -242.29294,1075.0518 -438.01906,1003.1652 -585.51258,945.99726 -647.3215,918.06429 c -70.10745,-31.68328 -145.29756,-68.39633 -178.19497,-87.0072 l -32.63783,-18.46406 -10.3424,-41.65472 c -5.68832,-22.9101 -13.03109,-52.2265 -16.31728,-65.14757 -26.56085,-104.43544 -64.31621,-433.55115 -82.51894,-719.322386 -8.41538,-132.115944 -0.0853,-248.469884 18.83384,-263.068764 5.53482,-4.27092 37.70344,-14.62729 71.48582,-23.01416 l 61.42253,-15.24886 33.50604,10.52822 c 50.37149,15.82766 161.39942,15.04637 313.00776,-2.2026 127.97607,-14.56025 154.30964,-15.34918 216.69404,-6.49192 102.17801,14.5071 186.285857,48.65924 299.427801,121.58318 51.172574,32.9825 77.799849,47.22302 88.298689,47.22302 10.40595,0 30.56643,-10.59718 65.51192,-34.4358 80.58366,-54.97142 152.61894,-86.12569 246.66581,-106.67959 38.38867,-8.38982 57.38945,-9.66551 142.39285,-9.56005 60.43501,0.075 119.9587,2.71642 155.05,6.88057 129.23752,15.33611 231.78107,21.12578 326.25732,18.42069 89.9979,-2.57688 93.3321,-2.35427 146.0702,9.75261 29.6835,6.81432 64.0924,15.24428 76.4642,18.73324 l 22.4942,6.34356 4.1757,97.59738 c 4.7597,111.246766 21.9776,266.74403 54.3196,490.56881 19.0756,132.01371 30.7172,267.81613 32.8482,383.18216 1.5815,85.61609 0.4031,102.20559 -7.6223,107.33519 -27.6929,17.69982 -379.7766,143.55084 -706.61567,252.57716 -145.40076,48.5025 -221.68213,76.4423 -248.44857,90.9999 -52.57423,28.5938 -91.87446,42.319 -149.81215,52.3203 -55.40633,9.5644 -68.72107,9.8563 -113.63589,2.4914 z M 430.93788,-65.500429 c 133.2575,-19.890424 363.48598,-68.816891 357.0254,-75.872401 -2.11584,-2.31066 -0.56451,-2.81312 3.47831,-1.12666 6.54772,2.73132 98.31511,-14.34251 93.72791,-17.43861 -1.04434,-0.70484 -35.8656,3.53294 -77.38058,9.4173 -53.3384,7.56021 -110.75652,11.85883 -195.72474,14.65296 -95.94221,3.15501 -128.29969,5.82524 -160.10918,13.21264 -45.72057,10.6181 -100.18799,34.059985 -97.62327,42.015474 0.95637,2.966721 -1.17952,4.176654 -4.74643,2.688745 -3.56698,-1.487914 -9.22586,-1.562143 -12.57532,-0.164963 -7.32285,3.054652 5.08602,23.592411 14.25448,23.592411 3.37306,0 39.22613,-4.939604 79.67342,-10.976896 z M -115.9594,-97.54226 c -84.25189,-58.11278 -204.39317,-90.54632 -328.84782,-88.77631 l -31.64285,0.45003 26.77888,2.94555 c 30.93588,3.40281 38.51289,7.01834 28.65369,13.67274 -5.12673,3.46026 -12.51303,3.43597 -27.50075,-0.0905 -11.27028,-2.65175 -21.54074,-4.11313 -22.82324,-3.24751 -1.2825,0.86561 24.09805,7.72028 56.40123,15.23259 78.91928,18.35319 207.70957,49.76537 257.27317,62.749388 22.17917,5.810219 41.74123,9.608694 43.47127,8.441052 1.72998,-1.167642 7.28159,0.6687 12.33692,4.080756 5.055323,3.412077 11.0169,6.203759 13.247975,6.203759 2.231074,0 -10.075782,-9.747712 -27.348475,-21.661545 z m -10.06224,1.372299 c -7.87192,-6.774729 -7.64808,-6.925809 2.38941,-1.612699 10.54182,5.580062 13.89426,9.087699 8.68559,9.087699 -1.31413,0 -6.29788,-3.36375 -11.075,-7.475 z M 416.20553,-127.4676 c 47.37259,-14.59746 90.28853,-19.67003 195.85865,-23.15005 84.49845,-2.7854 204.88262,-12.83782 211.46921,-17.65827 2.03622,-1.49022 -7.18261,-1.38032 -20.48622,0.24419 -23.63487,2.8861 -24.14179,2.67913 -22.15,-9.04406 1.98901,-11.70689 3.18916,-12.05677 49.50272,-14.4318 38.43822,-1.97117 41.44689,-2.57234 15.82143,-3.16133 -44.24912,-1.01704 -206.28972,6.78701 -259.47142,12.49641 -99.57672,10.69023 -185.83109,35.70949 -243.26528,70.56241 -39.58496,24.021422 -36.14874,32.552584 4.59796,11.41529 16.40346,-8.50929 47.05881,-20.78205 68.12295,-27.27279 z m -79.4342,23.82264 c 4.33311,-3.52393 9.30231,-6.40714 11.04266,-6.40714 1.74036,0 -0.38098,2.88321 -4.71409,6.40714 -4.33311,3.52393 -9.3023,6.407142 -11.04266,6.407142 -1.74035,0 0.38098,-2.883212 4.71409,-6.407142 z m -420.849986,-26.313 c -66.597134,-41.20745 -201.480254,-77.79537 -310.099994,-84.11664 -20.88428,-1.2154 -32.98767,-1.23231 -26.89642,-0.0376 20.39128,3.99946 11.36003,10.08264 -15.82143,10.65683 -17.48582,0.3694 -9.18234,1.8119 23.73214,4.12288 121.06278,8.5 194.74324,27.44856 275.29285,70.79763 26.10536,14.04902 51.501658,28.865124 56.436299,32.924681 8.435352,6.939525 9.760239,6.835695 22.149999,-1.735849 l 13.177984,-9.116862 z m -8.73058,22.57241 c -13.266334,-9.23821 -7.950484,-10.86805 -6.601048,-16.6394 22.092303,-33.57598 68.92605,59.839754 6.601048,16.6394 z M 336.13069,-125.6123 c 19.4963,-10.90739 58.23064,-27.21801 86.07635,-36.2458 85.61918,-27.7584 165.54423,-37.75557 370.22142,-46.30795 71.00119,-2.96676 56.56667,-3.36014 -85.43571,-2.32833 -130.62437,0.94914 -181.16465,2.8808 -214.57211,8.201 -56.5859,9.01144 -146.58831,33.9994 -144.65025,40.16018 0.82847,2.63337 -2.22456,3.82167 -6.78436,2.64067 -4.55986,-1.18099 -24.54302,5.9797 -44.40701,15.91266 l -36.11646,18.05994 17.58653,9.71601 c 9.67259,5.34381 18.72219,9.78514 20.11017,9.86963 1.38805,0.0845 18.47519,-8.77062 37.97143,-19.67801 z m -54.03131,7.64265 -13.53625,-7.63333 29.48836,-13.58171 c 16.21861,-7.46993 30.94753,-13.5817 32.73093,-13.5817 9.15351,0 -0.081,22.75656 -13.00167,32.03921 -17.51932,12.58666 -18.16307,12.63641 -35.68137,2.75753 z m -328.694161,-34.43778 c -59.277069,-38.05058 -108.762379,-59.32837 -173.268619,-74.50237 -47.60504,-11.19826 -64.91311,-12.95471 -144.70949,-14.68532 -67.57283,-1.46551 -92.53432,-0.6045 -98.09283,3.38356 -5.9405,4.26212 -0.38172,4.83818 27.35136,2.83443 19.67189,-1.42131 29.4083,-1.02535 22.39115,0.91062 -9.18066,2.53286 -2.73959,4.19306 24.71835,6.37119 109.26988,8.66799 240.9577,43.56657 305.988956,81.09013 l 29.780105,17.18336 -23.732143,-16.99166 c -22.987459,-16.45849 -30.046028,-27.31004 -17.764299,-27.31004 10.986146,0 82.626586,47.80757 78.459664,52.3582 -2.594524,2.83344 -1.011875,3.19725 4.289253,0.98595 6.1521306,-2.56629 -3.32712,-11.03273 -35.411457,-31.62805 z m 73.266122,19.31947 c 0,-0.9233 -4.419684,-2.82343 -9.821563,-4.22251 -5.631922,-1.45867 -8.1722102,-0.74258 -5.955059,1.67872 3.716517,4.05873 15.776622,6.00327 15.776622,2.54379 z m 231.439079,-7.19692 c 6.54539,-4.8816 28.28624,-15.70183 48.31307,-24.04497 20.02677,-8.34313 34.60779,-17.14001 32.40222,-19.54862 -2.2055,-2.40861 -0.97175,-3.11192 2.74167,-1.56292 3.71341,1.54901 28.65286,-3.10265 55.421,-10.33702 84.64097,-22.87511 158.17954,-29.92091 319.49723,-30.6113 l 142.39285,-0.6094 -75.94285,-5.27953 c -113.97915,-7.9238 -292.99374,-7.4749 -340.82939,0.85469 -74.19775,12.91999 -190.57505,64.29261 -186.16131,82.1775 0.94561,3.83181 -2.31518,7.01005 -7.24622,7.06277 -4.93096,0.0527 -10.15204,2.49854 -11.60235,5.43515 -4.09946,8.30072 7.83553,6.29224 21.01408,-3.53635 z m 6.46596,-13.11887 c 5.39448,-5.89121 33.30196,-22.63533 55.45905,-33.27472 12.30027,-5.90632 12.42342,-5.78193 3.13656,3.16707 -10.67465,10.28625 -66.89882,39.1754 -58.59561,30.10765 z m -48.0479,11.77293 c 0,-0.9233 -4.41969,-2.82342 -9.82156,-4.2225 -5.63193,-1.45868 -8.17221,-0.74259 -5.95506,1.67871 3.71651,4.05873 15.77662,6.00327 15.77662,2.54379 z m 139.49361,-83.16493 c 70.64407,-23.82637 115.84082,-27.75356 293.88688,-25.53615 87.08747,1.0846 142.67771,0.89537 123.53378,-0.42052 -33.15836,-2.2792 -33.79539,-2.54428 -13.44822,-5.5961 11.74742,-1.76197 30.25849,-3.44162 41.13572,-3.73257 42.30004,-1.13146 -161.00892,-16.10015 -220.70892,-16.24977 -133.38895,-0.33433 -228.78513,26.32355 -329.52529,92.08375 -21.1261,13.79047 -29.53405,19.78769 -18.68448,13.32716 30.23102,-18.0014 34.26371,-13.95363 6.16916,6.19221 -13.75907,9.86626 -1.52164,3.28876 27.19431,-14.61666 28.71596,-17.90541 69.41715,-38.35852 90.44706,-45.45135 z m -94.99477,38.92579 c 0.10949,-1.76196 7.94103,-6.8935 17.40357,-11.40342 l 17.20473,-8.19986 -15.34242,11.40343 c -16.12235,11.98306 -19.59237,13.45998 -19.26588,8.19985 z m -221.384686,20.6855 c -10.620229,-13.39368 -81.989109,-54.65277 -141.130744,-81.58921 -98.16374,-44.70927 -202.90589,-58.59359 -324.33339,-42.9927 -53.44607,6.86671 -77.51703,14.83643 -33.05854,10.94545 47.93307,-4.19507 150.36025,-3.05939 184.94425,2.05062 114.98969,16.99047 224.635608,55.69722 294.27856,103.88498 25.751779,17.81834 28.04924,18.73505 19.299864,7.70086 z m -75.238422,-21.77861 c -39.49617,-24.10699 -109.377772,-50.08406 -175.054292,-65.07282 -47.70692,-10.88773 -69.29077,-13.2795 -132.9,-14.727 -47.87716,-1.0895 -94.6533,0.46419 -126.57142,4.20411 l -50.62857,5.93228 111.79136,0.75432 c 158.0886,1.06671 230.34626,15.37406 326.590604,64.66642 39.865126,20.41729 48.675889,22.30328 17.282822,3.6995 -12.420518,-7.3605 -21.212991,-14.30726 -19.538768,-15.43723 4.158568,-2.80683 43.008148,13.73857 57.317617,24.41062 6.401729,4.77442 13.333983,8.60193 15.405071,8.50558 2.0710251,-0.0964 -8.591415,-7.71745 -23.694424,-16.93578 z m 879.839428,14.19309 c -4.56847,-1.23389 -10.02686,-1.08214 -12.12978,0.33723 -2.10292,1.41937 1.63492,2.42891 8.30625,2.24344 7.37247,-0.20494 8.87202,-1.2171 3.82353,-2.58067 z m -1328.99996,-4.27142 c -4.56844,-1.2339 -10.02683,-1.08214 -12.12977,0.33723 -2.10292,1.41936 1.63489,2.42891 8.30625,2.24344 7.37243,-0.20495 8.87203,-1.21711 3.82352,-2.58067 z m 1361.03835,0.089 c -4.35089,-1.18495 -11.47053,-1.18495 -15.82143,0 -4.35089,1.18495 -0.79107,2.15445 7.91072,2.15445 8.70178,0 12.2616,-0.9695 7.91071,-2.15445 z m 31.24732,-4.36041 c -4.56847,-1.2339 -10.02686,-1.08215 -12.12978,0.33722 -2.10292,1.41937 1.63492,2.42891 8.30625,2.24344 7.37247,-0.20494 8.87202,-1.2171 3.82353,-2.58066 z m -1404.54728,-8.45386 c -4.35089,-1.18495 -11.47054,-1.18495 -15.82143,0 -4.35089,1.18495 -0.79107,2.15445 7.91072,2.15445 8.70178,0 12.2616,-0.9695 7.91071,-2.15445 z m -53.9133,-4.40261 c -6.15749,-1.08299 -14.70106,-1.01177 -18.98571,0.15826 -4.28465,1.17004 0.7533,2.05613 11.19544,1.96908 10.44214,-0.0871 13.94777,-1.04436 7.79027,-2.12734 z m 1522.14183,-4.14025 c -4.35089,-1.18494 -11.47054,-1.18494 -15.82143,0 -4.35089,1.18495 -0.79107,2.15445 7.91072,2.15445 8.70178,0 12.2616,-0.9695 7.91071,-2.15445 z m 61.1762,-4.17914 c 6.3506,-3.69643 -22.5696,-0.97151 -31.1155,2.93176 -6.93268,3.16644 -4.37252,3.56273 9.4929,1.46941 10.4421,-1.57649 20.1723,-3.55702 21.6226,-4.40117 z m -1529.40473,-4.36372 c -4.35089,-1.18494 -11.47054,-1.18494 -15.82143,0 -4.35089,1.18495 -0.79107,2.15445 7.91072,2.15445 8.70178,0 12.2616,-0.9695 7.91071,-2.15445 z m 1556.43303,-0.089 c -4.5685,-1.23389 -10.0269,-1.08214 -12.1298,0.33723 -2.1029,1.41936 1.6349,2.42891 8.3062,2.24344 7.3725,-0.20494 8.8721,-1.21711 3.8236,-2.58067 z m -1607.45714,-4.27143 c -4.56843,-1.23389 -10.02683,-1.08214 -12.12976,0.33723 -2.10293,1.41936 1.63489,2.42891 8.30625,2.24344 7.37243,-0.20494 8.87202,-1.2171 3.82351,-2.58067 z m -37.97142,-4.27143 c -4.56844,-1.23389 -10.02683,-1.08214 -12.12977,0.33723 -2.10292,1.41936 1.63489,2.42891 8.30625,2.24344 7.37243,-0.20494 8.87203,-1.2171 3.82352,-2.58067 z m 136.33937,-4.31361 c -6.15749,-1.083 -14.70106,-1.01177 -18.98571,0.15825 -4.28465,1.17004 0.7533,2.05613 11.19544,1.96908 10.44214,-0.087 13.94777,-1.04436 7.79027,-2.12733 z m -222.96169,-9.85424 c 8.34574,-2.42054 9.42359,-3.75098 3.16428,-3.9058 -5.22107,-0.12915 -13.76464,1.62846 -18.98571,3.9058 -11.56841,5.04593 -1.57635,5.04593 15.82143,0 z m 61.30803,1.35355 c -4.56844,-1.23389 -10.02683,-1.08214 -12.12976,0.33723 -2.10293,1.41937 1.63488,2.42891 8.30625,2.24344 7.37242,-0.20494 8.87202,-1.2171 3.82351,-2.58067 z m -105.60803,-5.62498 c -2.1512,-2.34929 -8.72695,-4.13633 -14.61278,-3.97121 -8.72391,0.24474 -8.36252,0.9786 1.95564,3.97121 16.9347,4.91163 17.15463,4.91163 12.65714,0 z m 1596.24097,-11.66014 c -13.13033,-0.92466 -33.06533,-0.90915 -44.3,0.0346 -11.23473,0.94361 -0.49173,1.70015 23.87327,1.6812 24.365,-0.0188 33.557,-0.79099 20.42673,-1.71565 z m 205.81971,-3.98303 c -4.3509,-1.18495 -11.4706,-1.18495 -15.8214,0 -4.3509,1.18495 -0.7911,2.15445 7.9107,2.15445 8.7018,0 12.2616,-0.9695 7.9107,-2.15445 z m -1633.16694,-4.36042 c -4.56843,-1.23389 -10.02683,-1.08214 -12.12976,0.33723 -2.10293,1.41936 1.63489,2.42891 8.30625,2.24344 7.37243,-0.20494 8.87202,-1.2171 3.82351,-2.58067 z m 1446.47407,-0.0265 c -6.09125,-1.07438 -16.05875,-1.07438 -22.15,0 -6.09125,1.07438 -1.1075,1.95342 11.075,1.95342 12.1825,0 17.16625,-0.87904 11.075,-1.95342 z m -50.749,-4.28708 c -6.15751,-1.08299 -14.70108,-1.01177 -18.98572,0.15825 -4.28463,1.17005 0.75329,2.05613 11.19544,1.96908 10.44214,-0.087 13.94779,-1.04435 7.79028,-2.12733 z m -1445.9581,-12.98184 c -14.79303,-0.89928 -38.99982,-0.89928 -53.79286,0 -14.79303,0.89929 -2.68964,1.63507 26.89643,1.63507 29.58607,0 41.68947,-0.73578 26.89643,-1.63507 z m 49.04643,-1.14387 c 7.67629,-3.34826 6.76801,-4.15313 -4.74643,-4.20602 -7.83161,-0.036 -14.23929,1.85674 -14.23929,4.20602 0,5.35177 6.71614,5.35177 18.98572,0 z"
         id="path3002"
         inkscape:connector-curvature="0"
         sodipodi:nodetypes="ssssscssssscsssssssssssscssscssssssscssscsssssscsssssscssssssssssssssssssssssssssssssscscccssssscsscsssscsssssssssssscssssssssssscssscssssssssssssssssssssssssscscscssssssssssscssscscsssssssssssssssssssssssssssssssssssssssssssssssssssssssssssssssssccsccssssssssssssssssssssssss" />
      <path
         style="fill:#8c8c8c;fill-opacity:1"
         d="m 159.57134,1235.9823 c -41.04003,-8.9009 -78.078181,-24.1856 -104.421428,-43.0921 -24.414299,-17.5221 -79.031324,-39.471 -302.274772,-121.4749 -207.9698,-76.39345 -280.47593,-104.26491 -365.38949,-140.45625 -121.31954,-51.70812 -239.77038,-112.22281 -243.40025,-124.34948 -1.4789,-4.94072 -5.62327,-18.59383 -9.20973,-30.34026 -29.69817,-97.26807 -81.61715,-483.28843 -92.20706,-685.564274 -1.9064,-36.413928 -5.4674,-89.2728557 -7.91331,-117.464284 -9.23562,-106.449042 1.40743,-243.129402 19.63245,-252.124012 5.26575,-2.59881 36.8442,-11.06953 70.17435,-18.82382 l 60.60027,-14.09871 33.12949,9.94296 c 28.8071,8.6457 43.45061,9.96462 112.23664,10.10898 81.86612,0.17184 115.41747,-1.97441 196.18571,-12.54972 106.48315,-13.94227 145.7289,-15.57805 205.35967,-8.55949 67.55003,7.95067 126.45796,23.97764 184.904779,50.30673 49.610176,22.34833 165.67111,90.94795 181.557343,107.31228 8.033678,8.27545 16.066918,11.02052 32.250588,11.02052 18.55961,0 28.86423,-4.92554 74.21484,-35.47414 105.29198,-70.9257 211.16189,-106.97683 340.61275,-115.9865 40.83745,-2.84225 86.3221,0.097 297.44285,19.22093 74.48444,6.74702 125.50905,8.64616 212.00717,7.89091 l 113.9143,-0.99462 65.7625,15.66416 c 36.1695,8.6153 69.6318,17.8315 74.3608,20.48044 6.6055,3.70012 8.624,21.27575 8.7096,75.83969 0.1348,85.842959 20.5178,282.19242 50.6058,487.48769 24.4125,166.57051 37.4358,312.95749 37.6843,423.58898 l 0.1981,88.28189 -118.6607,44.73864 c -165.2123,62.29007 -302.66942,110.59617 -574.31758,201.83066 -156.36564,52.5162 -245.63368,85.0081 -268.70227,97.8026 -91.756,50.8904 -196.08192,69.1296 -285.04771,49.8345 z M 170.42186,-44.989316 c -1.44405,-6.418462 -2.59642,-0.137074 -2.56092,13.95864 0.038,14.095714 1.21699,19.347183 2.62547,11.669931 1.40849,-7.677252 1.37944,-19.210109 -0.0645,-25.628571 z m 25.46908,-34.094931 c -1.2559,-13.508393 -2.28347,-2.456071 -2.28347,24.560714 0,27.016785 1.02757,38.069107 2.28347,24.560714 1.25591,-13.508393 1.25591,-35.613035 0,-49.121428 z m -139.364058,34.23016 c -1.454622,-6.49284 -2.683694,-2.194446 -2.731221,9.551982 -0.0443,11.746429 1.142687,17.058749 2.644836,11.805161 1.50215,-5.253592 1.541071,-14.864307 0.08607,-21.357143 z M 12.15189,-55.59139 c -1.508415,-5.285893 -2.7426128,-0.961072 -2.7426128,9.610714 0,10.571786 1.2341978,14.896607 2.7426128,9.610714 1.508478,-5.285893 1.508478,-13.935535 0,-19.221428 z m -25.418073,-10.678571 c -1.591826,-4.11125 -2.894246,-0.7475 -2.894246,7.475 0,8.222499 1.30242,11.586249 2.894246,7.474999 1.591762,-4.11125 1.591762,-10.838749 0,-14.949999 z m 508.251793,-7.127635 c 70.663,-11.797908 463.30933,-96.984964 459.34827,-99.658454 -1.29008,-0.87071 -48.92599,5.47084 -105.85763,14.09234 -87.51958,13.25362 -121.60058,16.24304 -220.59064,19.34911 -155.58242,4.88181 -213.11622,15.8798 -276.07974,52.774588 -19.94981,11.689969 -21.65948,14.307795 -15.93351,24.39755 l 6.41413,11.302498 43.12453,-5.581561 c 23.71854,-3.069858 73.02709,-10.574088 109.57459,-16.676071 z M 31.137604,-85.49139 c -1.508415,-5.285892 -2.742613,-0.961071 -2.742613,9.610715 0,10.571785 1.234198,14.896606 2.742613,9.610714 1.508478,-5.285893 1.508478,-13.935536 0,-19.221429 z M 151.43615,-96.246458 c -1.44405,-6.418462 -2.59642,-0.137074 -2.56092,13.95864 0.038,14.095714 1.21698,19.347183 2.62547,11.669931 1.40849,-7.677252 1.37944,-19.210109 -0.0645,-25.628571 z m -267.24797,-4.343692 c -97.63973,-62.6239 -164.72398,-79.96066 -349.99565,-90.45028 -46.35728,-2.62464 -98.79161,-6.6288 -116.52075,-8.89813 -17.72912,-2.26934 -33.1742,-3.49201 -34.32238,-2.71705 -1.14818,0.77496 55.55794,14.53195 126.0136,30.5711 115.29667,26.24714 337.56192,79.879434 378.07977,91.230115 34.170238,9.572463 33.191968,3.640273 -3.25459,-19.735755 z m 228.90575,6.47461 c -1.73358,-2.891894 -3.04638,0.508436 -2.91741,7.556293 0.12911,7.047857 1.54734,9.413955 3.15188,5.257992 1.60455,-4.155959 1.49905,-9.922387 -0.23479,-12.814285 z M -49.186141,-109.9444 c -15.729095,-19.83668 -109.955569,-61.87328 -176.499679,-78.74058 -87.93758,-22.29002 -146.20955,-29.21362 -344.01805,-40.87459 -77.49684,-4.56851 -160.80625,-11.12509 -185.13203,-14.5702 -24.32579,-3.4451 -45.15337,-5.63973 -46.28352,-4.87693 -3.44562,2.3256 94.04587,22.91035 141.14078,29.80105 61.43054,8.98821 110.82384,13.74267 224.66428,21.62557 112.35315,7.7799 158.41648,14.81861 208.37884,31.84132 41.15097,14.02056 101.85228,44.14041 132.991318,65.989978 l 21.777246,15.280647 14.367313,-9.109966 c 10.574916,-6.705309 12.848518,-11.025349 8.613502,-16.366299 z m 383.183661,20.823022 c 2.36594,-2.583817 21.55163,-12.222902 42.63489,-21.420182 59.54299,-25.97487 100.80433,-32.59626 236.68141,-37.98134 131.55233,-5.21368 215.19009,-14.82733 387.95748,-44.59336 105.0592,-18.1006 189.7195,-34.98845 148.7214,-29.66662 -10.4421,1.35546 -46.0403,6.00801 -79.1071,10.33901 -33.0668,4.33099 -114.23071,9.99143 -180.36428,12.57877 -347.11391,13.58006 -406.78246,21.38828 -509.44999,66.66663 -47.58794,20.9872 -72.73674,37.637858 -66.73953,44.187304 5.41182,5.910175 14.19802,5.860934 19.66572,-0.110203 z m -1.54791,-31.593012 c 37.64361,-22.22568 98.35929,-44.66984 153.91845,-56.89749 66.5841,-14.65406 151.06395,-21.86915 334.01263,-28.5267 97.17052,-3.53607 177.37903,-6.90943 178.2411,-7.49637 5.20711,-3.54512 -366.12487,-2.41238 -418.20046,1.27571 -119.94934,8.49505 -232.88168,36.05512 -294.09409,71.77089 l -28.29416,16.50884 18.8013,11.15015 c 10.3407,6.13258 19.76565,11.21089 20.94441,11.28513 1.1787,0.0742 16.78059,-8.50733 34.67082,-19.07016 z M -2.2071951,-122.4296 c 5.1737336,-5.65011 -74.6401819,-54.34589 -126.5942749,-77.23727 -86.54738,-38.13346 -170.45981,-49.11972 -338.15575,-44.27315 l -110.74999,3.20078 74.76009,5.17162 c 149.09134,10.31359 237.28486,23.83246 319.8031,49.02148 44.67547,13.63736 108.352416,43.08171 136.378367,63.06162 14.425599,10.28411 20.750183,12.19046 29.708276,8.95464 6.259526,-2.26106 12.9421177,-5.81593 14.8501819,-7.89972 z m 36.3729571,-9.40077 c 12.324513,-4.45185 11.248213,-5.89522 -20.98396,-28.14034 -46.073391,-31.7977 -101.431492,-58.01269 -164.700752,-77.99451 -103.39639,-32.65483 -191.69989,-39.76259 -327.02048,-26.32265 -138.76343,13.78188 -197.16901,11.47301 -305.70656,-12.08505 -30.85331,-6.69671 -56.09693,-11.34971 -56.09693,-10.34 0,4.5865 65.3283,20.12556 116.52697,27.71722 50.2664,7.45343 76.78508,8.22698 243.64999,7.10724 163.88703,-1.09976 192.37585,-0.30605 228.38017,6.3626 85.69866,15.87299 169.187957,49.94035 237.083527,96.74066 17.2726962,11.90606 32.411208,21.64738 33.641039,21.64738 1.229832,0 8.081966,-2.11164 15.226986,-4.69255 z m 263.200028,-25.24608 c 61.14615,-27.88532 127.74474,-46.32918 211.08209,-58.45723 44.62332,-6.49402 82.26294,-7.66388 238.44379,-7.41104 181.97876,0.2946 227.83515,-3.12237 108.8225,-8.10889 -33.06678,-1.38547 -108.53499,-4.72195 -167.70713,-7.4144 -223.57564,-10.17316 -310.39693,4.44251 -411.52111,69.27629 -44.94228,28.81387 -54.75809,37.78247 -41.35139,37.78247 3.27187,0 31.27593,-11.55024 62.23125,-25.6672 z M 23.507056,-181.14318 C -103.12335,-262.7453 -207.85893,-297.99496 -323.68881,-297.99496 c -26.35932,0 -92.87288,4.97583 -147.80793,11.05739 -58.09393,6.43127 -129.41442,11.34567 -170.47074,11.74643 -79.84221,0.77936 -80.5072,5.61396 -1.33546,9.70895 38.95719,2.01498 79.68119,0.21455 154.19572,-6.81709 72.26682,-6.81953 115.85001,-8.81975 152.22695,-6.98634 137.542,6.93215 262.913849,46.38074 360.189241,113.33449 22.416939,15.42937 42.999478,25.91588 50.62857,25.79452 9.565762,-0.1522 -3.338574,-10.63998 -50.430485,-40.98657 z m 227.577004,14.14377 c 104.64951,-74.052 186.06708,-89.09669 432.91155,-79.99527 260.30242,9.59763 323.73789,10.30182 374.37999,4.15592 l 47.3171,-5.74238 -93.2825,-3.14758 c -51.30544,-1.73117 -149.55651,-7.9464 -218.33574,-13.81163 -178.33464,-15.2077 -219.15279,-16.84654 -279.39345,-11.21762 -115.91531,10.83121 -215.73175,49.37416 -307.27922,118.6523 -22.74374,17.21125 -23.22465,18.15357 -9.26484,18.15357 9.83878,0 27.40639,-8.9742 52.94711,-27.04731 z m 833.64524,-57.02771 c -4.5684,-1.23389 -10.0268,-1.08214 -12.1297,0.33723 -2.103,1.41936 1.6349,2.42891 8.3062,2.24344 7.3725,-0.20494 8.872,-1.2171 3.8235,-2.58065 z m 25.3143,-4.27143 c -4.5684,-1.23389 -10.0268,-1.08214 -12.1298,0.33723 -2.1029,1.41937 1.635,2.42891 8.3063,2.24344 7.3725,-0.20494 8.872,-1.2171 3.8235,-2.58065 z m 71.592,-12.18641 c 31.168,-9.12101 2.6485,-6.96857 -31.6429,2.38817 -26.5055,7.2323 -28.0467,8.19033 -9.4928,5.90094 12.1825,-1.50322 30.6936,-5.23331 41.1357,-8.28911 z m 37.9714,6.56143 c 7.9781,-2.3139 9.1478,-3.67099 3.1643,-3.67099 -5.2211,0 -15.1886,1.65195 -22.15,3.67099 -7.978,2.3139 -9.1478,3.67099 -3.1643,3.67099 5.2211,0 15.1886,-1.65195 22.15,-3.67099 z m -2027.4515,-32.20291 c -11.71194,-3.43197 -23.10337,-6.17183 -25.31429,-6.08859 -8.23382,0.31002 27.99562,12.35959 37.11587,12.34438 5.22107,-0.009 -0.0896,-2.82381 -11.80158,-6.25579 z"
         id="path3000"
         inkscape:connector-curvature="0" />
      <path
         style="fill:#333333;fill-opacity:1"
         d="m 185.17231,1239.3248 c -42.07614,-5.567 -91.06903,-23.3056 -129.011156,-46.7106 -39.657612,-24.4632 -82.435906,-41.9269 -279.134034,-113.9527 -317.95877,-116.42837 -460.93976,-175.54627 -583.59621,-241.29769 -49.88944,-26.7438 -48.579,-24.7604 -65.60494,-99.29709 -37.09187,-162.38207 -79.1107,-525.82105 -91.63495,-792.590253 -4.17281,-88.881577 5.16553,-210.741287 16.90808,-220.640297 3.21853,-2.71324 33.78978,-11.85974 67.9361,-20.32556 l 62.08423,-15.3924 30.98668,9.5187 c 25.5013,7.83366 44.99051,9.78937 110.09382,11.04775 66.54669,1.28627 98.19904,-0.62429 199.35,-12.03294 97.35779,-10.98083 130.4809,-13.07821 174.03571,-11.02009 123.68496,5.84456 216.716793,39.58049 352.412625,127.79461 84.878985,55.17876 84.201005,55.16529 163.365925,3.24547 84.97841,-55.73254 155.9927,-85.15758 246.30926,-102.05915 61.17014,-11.44721 202.03774,-9.24804 339.08358,5.29363 93.92651,9.96637 130.31003,11.75835 239.51487,11.79675 l 128.7649,0.0453 61.0923,14.06668 c 33.6007,7.73667 65.6911,15.3415 71.312,16.89961 8.7265,2.41902 10.8332,15.43606 14.4191,89.09387 5.0146,103.006093 16.9879,219.841157 38.8248,378.8538 37.3963,272.31198 48.0872,381.00561 49.3422,501.65822 l 1.1084,106.55108 -47.4643,19.01366 c -99.3056,39.78076 -336.0276,124.02759 -603.66697,214.83864 -181.07308,61.4387 -289.6806,100.8014 -312.03564,113.091 -45.33131,24.9209 -101.54016,43.6624 -153.05384,51.0321 -46.71283,6.6829 -60.84947,6.8883 -101.74254,1.4779 z m 132.61331,-22.4285 c 45.10613,-10.7773 81.83963,-25.2099 116.61671,-45.8192 24.56346,-14.5564 26.96971,-23.7231 18.58783,-70.8096 l -3.91403,-21.9874 -44.89469,19.6018 c -116.84732,51.0178 -250.55187,58.1911 -339.2611,18.2017 -15.510569,-6.992 -29.329257,-11.9513 -30.708253,-11.0206 -1.378932,0.9308 1.100475,15.3176 5.509844,31.9708 7.23438,27.3223 10.725979,31.9638 35.763009,47.5403 15.260274,9.4941 45.4063,22.901 66.99115,29.7931 51.20454,16.3497 113.69266,17.2512 175.30953,2.5291 z M 17.76027,1142.5443 C 11.463025,1128.8425 -17.009407,1012.0274 -29.870772,947.12645 -73.287176,728.03852 -93.489241,465.62352 -93.54354,120.04689 l -0.02797,-177.822458 -87.01786,-22.411579 c -47.85982,-12.326373 -202.35606,-48.958643 -343.32499,-81.405043 -140.96892,-32.4464 -289.7754,-67.57086 -330.68107,-78.05436 -50.13815,-12.84965 -75.77697,-17.52866 -78.67955,-14.35881 -8.21988,8.97677 -9.98425,258.5008551 -2.47278,349.708693 16.33432,198.339087 78.01786,640.734437 96.0937,689.185717 6.45793,17.31014 13.18896,22.62585 58.67793,46.33975 126.82195,66.11377 243.65235,114.50657 545.01176,225.7516 111.38286,41.1163 212.481786,78.8632 224.664286,83.8819 26.925223,11.0923 33.561805,11.4764 29.060356,1.682 z m 779.87281,-101.3299 c 287.95882,-97.71264 562.33462,-196.39276 582.78952,-209.60207 7.6269,-4.92534 7.8428,-24.96347 1.4794,-137.34056 -7.6613,-135.29708 -12.8394,-184.05705 -45.2719,-426.30245 -28.3487,-211.742486 -37.5727,-298.489514 -42.126,-396.17499 -2.2722,-48.74768 -4.9921,-88.63215 -6.0441,-88.63215 -1.0521,0 -26.9419,3.93349 -57.5329,8.74109 -87.4669,13.74603 -172.2709,31.07975 -406.85578,83.1603 -245.74969,54.559247 -308.49779,67.00695 -408.19285,80.975567 l -69.61428,9.753897 1.98559,44.302432 c 4.67548,104.320694 22.2572,259.060114 73.94986,650.845274 18.90806,143.30643 38.9235,302.84428 44.47872,354.52856 11.43345,106.3738 15.04092,130.2786 19.66034,130.2786 1.77915,0 141.86157,-47.0401 311.29438,-104.5335 z m -511.05681,84.9005 c 41.90805,-8.3133 109.34328,-31.6819 139.02295,-48.1763 21.45804,-11.9251 21.87787,-12.7722 19.83387,-40.0124 l -2.08817,-27.8294 -35.50196,14.429 c -126.00059,51.2104 -267.9762,51.9221 -378.685186,1.8982 l -19.6636307,-8.885 8.3812437,32.5303 c 4.609668,17.8916 11.870564,35.368 16.135325,38.8363 13.777869,11.205 58.424357,30.0082 87.623308,36.9033 37.50818,8.8572 121.05348,9.0122 164.94225,0.3058 z m -3.59779,-76.5208 c 47.69502,-6.7887 112.47776,-26.3335 141.02746,-42.5477 l 17.68905,-10.04611 -5.08697,-44.15833 C 430.71986,901.72868 375.32037,479.16549 352.69889,312.81932 344.23265,250.56325 335.52682,175.59968 333.35258,146.23361 328.53837,81.209736 327.64623,78.680751 312.73561,87.788376 306.62253,91.522331 284.611,99.953106 263.82113,106.52337 229.43452,117.39061 219.73536,118.45155 156.40705,118.27262 96.181647,118.10262 80.957003,116.5251 43.522934,106.57737 19.724595,100.25322 -11.601833,89.689547 -26.09135,83.102619 -40.580803,76.515692 -56.434507,69.468604 -61.321873,67.442495 c -7.604221,-3.152485 -8.307705,27.681846 -4.876923,213.750015 4.960017,269.00329 14.615772,391.43969 45.780821,580.50537 25.3149176,153.57562 22.5337637,148.23502 89.014962,170.93772 67.395803,23.015 134.523593,28.3251 214.381493,16.9585 z M 228.557,105.82119 c 18.79827,-3.37677 47.27684,-11.590816 63.28572,-18.25339 23.69423,-9.86102 29.48114,-14.714302 31.11815,-26.097574 l 2.01097,-13.98376 -24.16097,10.764598 C 208.80718,99.242041 57.51338,91.486579 -41.007349,40.729066 l -27.249878,-14.039032 0,12.427166 c 0,9.26994 6.029293,15.632104 23.732142,25.042275 C 32.471603,105.08809 140.71106,121.60122 228.557,105.82119 z m 11.12861,-37.595486 c 14.47673,-3.384723 39.39548,-11.325394 55.375,-17.645955 l 29.05358,-11.491979 0,-29.7199333 c 0,-16.3459667 -1.50512,-29.7199417 -3.34478,-29.7199417 -1.83959,0 -20.07347,5.699653 -40.51969,12.6659003 C 237.38631,6.9178008 170.85904,15.347371 128.6507,11.522674 65.569968,5.8066272 -7.2594201,-13.069695 -54.017942,-35.822399 l -14.239285,-6.928838 0,30.057201 0,30.057205 30.060713,14.761105 C 3.515542,52.606713 26.825885,60.050403 79.350685,69.660733 130.69078,79.05433 195.86531,78.471024 239.68561,68.225704 z M 116.63831,-60.244005 c -1.52291,-27.813757 -5.12114,-48.957325 -7.99609,-46.985715 -2.875,1.97162 -3.55343,26.264088 -1.50765,53.983272 2.04584,27.719183 5.64407,48.8627538 7.99608,46.985713 2.35208,-1.8770408 3.0305,-26.169509 1.50766,-53.98327 z m 15.96901,-25.425025 c -1.23205,-14.58533 -2.23101,-1.530931 -2.21994,29.009783 0.0127,30.540714 1.01909,42.474166 2.24007,26.518788 1.22097,-15.955383 1.21185,-40.94324 -0.019,-55.528571 z m 23.34616,27.941926 c 2.60972,-31.174193 2.02489,-52.324996 -1.44677,-52.324996 -6.04094,0 -14.9067,97.699812 -9.42533,103.86632 5.47529,6.15965622 6.41438,1.7075634 10.8721,-51.541324 z m 22.60357,3.203571 c 0,-28.191428 -2.48206,-51.257147 -5.51567,-51.257147 -5.54838,0 -14.07505,93.328676 -9.07314,99.3107176 10.00015,11.9597478 14.58881,-3.1546934 14.58881,-48.0535706 z m 23.9663,4.21329 c 2.02552,-49.308503 -4.14173,-69.236767 -11.87904,-38.384718 -8.27771,33.006763 -6.9158,86.3994785 2.15203,84.3697598 5.48661,-1.2281041 8.46731,-15.3194828 9.72701,-45.9850418 z M 93.329486,-109.1997 c -8.951068,-6.0415 -10.260449,6.75482 -5.446432,53.228375 l 5.238285,50.5692198 1.79029,-50.7606908 c 0.984662,-27.918382 0.272761,-51.784984 -1.582143,-53.036904 z m 129.430674,89.663365 c -0.0533,-3.972603 -2.85754,-10.106127 -6.23168,-13.630055 -4.55398,-4.756164 -6.15973,-2.21474 -6.23168,9.862801 -0.057,9.772921 2.4303,15.2157676 6.23168,13.6300552 3.48071,-1.4519392 6.28497,-5.8901972 6.23168,-9.8628012 z M 60.631657,-55.59139 c -2.241074,-24.080178 -5.103233,-44.58304 -6.360341,-45.56191 -1.25717,-0.97886 -2.28569,18.723102 -2.28569,43.782147 0,27.678685 2.496432,45.561905 6.360341,45.561905 4.112749,0 4.920464,-15.471601 2.28569,-43.782142 z m 18.315518,-2.135714 c -3.257189,-45.079126 -4.797627,-51.622516 -11.144171,-47.338936 -4.928944,3.32676 4.499235,93.256792 9.776883,93.256792 2.576868,0 3.192132,-20.663035 1.367288,-45.917856 z m 158.303265,10.678571 c -3.64646,-51.415561 -6.49343,-53.903887 -7.3307,-6.407143 -0.40377,22.905535 1.64277,41.646428 4.5479,41.646428 2.90506,0 4.15736,-15.857678 2.7828,-35.239285 z m 18.26451,-2.135714 c -2.38739,-32.996465 -4.21325,-38.775917 -10.83749,-34.304906 -4.67036,3.152199 4.13395,67.408477 9.23617,67.408477 2.1981,0 2.91867,-14.896607 1.60132,-33.103571 z M 39.328484,-58.794961 c 0,-22.780951 -2.578323,-38.442857 -6.328572,-38.442857 -3.750248,0 -6.328571,15.661906 -6.328571,38.442857 0,22.78095 2.578323,38.442856 6.328571,38.442856 3.750249,0 6.328572,-15.661906 6.328572,-38.442856 z m 235.153566,11.092613 c -1.1923,-13.148794 -4.75212,-23.906899 -7.91071,-23.906899 -6.64728,0 -7.25178,12.491639 -1.70125,35.154467 5.78685,23.6278 12.10409,16.235598 9.61196,-11.247568 z M 15.090119,-60.930676 10.849913,-90.830675 7.6543644,-60.930676 c -3.3673695,31.508077 -1.8281977,39.353196 6.5679176,33.475749 2.80938,-1.966659 3.199916,-17.030749 0.867837,-33.475749 z m 271.588421,9.331641 c -8.19601,-5.531872 -9.51311,4.77148 -2.17507,17.01544 4.12876,6.889139 4.94926,6.616738 6.86435,-2.279012 1.19635,-5.556847 -0.91384,-12.188239 -4.68928,-14.736428 z M -4.971515,-57.182262 c 0,-20.552316 -1.330329,-23.270687 -9.224272,-18.848875 -6.128652,3.433016 -8.068676,9.700645 -5.780897,18.676582 8.283087,32.498088 15.005169,32.575272 15.005169,0.17231 z M 305.54439,-65.55316 c -41.66953,-53.01535 -142.09876,-74.88765 -246.026498,-53.58166 -58.147609,11.92071 -133.2899,49.498665 -118.687418,59.354491 2.155638,1.454926 12.083584,-4.039759 22.062096,-12.210412 51.296993,-42.003169 174.90038,-58.681969 255.82648,-34.520709 33.88994,10.118175 70.93784,35.425197 80.50582,54.992739 5.37966,11.001987 9.11852,13.619569 14.3806,10.067958 5.26208,-3.551616 3.16631,-9.818041 -8.06108,-24.102407 z m -90.77696,-20.0335 c -1.39805,-7.58278 -2.51896,-0.331872 -2.49087,16.113127 0.0253,16.445 1.17193,22.649092 2.54194,13.786873 1.36994,-8.862223 1.34697,-22.317223 -0.0506,-29.9 z M -30.2858,-54.77562 c 0,-4.837218 -2.847857,-7.606995 -6.328571,-6.155056 -3.480714,1.45194 -6.328571,5.409662 -6.328571,8.794944 0,3.385282 2.847857,6.155056 6.328571,6.155056 3.480714,0 6.328571,-3.957726 6.328571,-8.794944 z m 486.86933,-10.878717 c 54.18795,-8.471226 201.75339,-38.264443 327.92321,-66.207143 126.16981,-27.9427 231.30316,-50.80491 233.62976,-50.80491 2.3265,0 2.8441,-0.93546 1.1501,-2.0788 -1.694,-1.14334 -52.71807,5.70165 -113.38692,15.21108 -143.23734,22.45151 -214.73095,29.50907 -300.16407,29.631 -112.12292,0.16 -184.17408,14.1935 -251.7948,49.042364 -27.64915,14.249216 -28.51458,15.360176 -21.59891,27.726321 3.96238,7.085274 11.36998,12.88232 16.46125,12.88232 5.09133,0 53.59249,-6.931003 107.78038,-15.402232 z m -537.4979,-9.804403 c 0,-8.868391 -97.41753,-64.31794 -138.75779,-78.9802 -68.61835,-24.33708 -116.65259,-31.63861 -256.77791,-39.03196 -27.84572,-1.46921 -75.87714,-5.50341 -106.73648,-8.9649 -30.85936,-3.46149 -57.2694,-5.50968 -58.689,-4.55154 -1.41959,0.95815 82.21004,21.1994 185.84362,44.98056 103.63362,23.78115 228.29471,53.61873 277.02471,66.305715 98.958156,25.764031 98.09285,25.585464 98.09285,20.242325 z m 500.15895,-49.04328 c 46.18642,-14.09259 89.91874,-18.8525 218.17021,-23.74607 113.5247,-4.33166 184.51285,-12.72286 363.85651,-43.00993 108.5463,-18.33102 219.8612,-40.13558 225.9799,-44.26538 7.8718,-5.31301 -3.6936,-7.5276 -16.0335,-3.07017 -21.3012,7.69439 -134.0444,25.40562 -192.4023,30.22515 -30.37894,2.50887 -129.44253,7.34869 -220.14133,10.75515 -224.56277,8.43412 -291.15485,16.81725 -383.48952,48.27664 -51.35408,17.49685 -113.04075,55.20332 -103.28748,63.135248 5.71749,4.649779 13.2607,2.569264 39.89633,-11.003918 18.06522,-9.20579 48.41819,-21.48931 67.45118,-27.29672 z m -472.805156,29.907571 17.860873,-9.863691 -43.175158,-26.70934 c -28.919739,-17.89052 -61.981209,-32.85316 -100.132359,-45.31698 -95.98298,-31.35722 -181.38565,-43.36351 -392.37142,-55.16133 -66.13357,-3.69803 -143.95706,-9.65736 -172.94108,-13.24295 -52.97096,-6.55301 -115.97123,-22.43303 -124.0651,-31.2722 -2.39137,-2.61156 -7.1958,-4.7483 -10.67651,-4.7483 -16.51285,0 7.77688,11.33087 60.16513,28.06634 92.49486,29.54756 200.60008,45.38394 393.0747,57.58172 41.76857,2.64702 94.09984,7.55314 116.29167,10.9025 60.5119,9.1329 133.61532,36.78674 186.25567,70.45751 25.038237,16.01541 46.948004,29.130511 48.688361,29.144671 1.740357,0.0141 11.201698,-4.412919 21.025223,-9.83795 z M 406.38562,-152.38542 c 95.70704,-33.50027 180.71115,-44.25158 408.19284,-51.62823 159.59322,-5.17519 253.19234,-12.5845 325.92144,-25.79994 66.8232,-12.1423 67.7694,-12.41399 57.7671,-16.58636 -4.8887,-2.03927 -25.833,0.63476 -50.7137,6.47482 -79.5562,18.6736 -146.5601,23.05156 -353.08476,23.07014 -105.03973,0.009 -213.25829,2.04299 -240.48571,4.51899 -104.96416,9.5452 -196.57998,33.24976 -267.36542,69.17779 l -34.3325,17.42588 24.5458,13.9089 24.54587,13.908885 28.77235,-18.928495 c 15.82484,-10.41067 50.13133,-26.40474 76.23669,-35.54238 z m -414.5214206,35.477 c 12.2256605,-6.36016 10.7699625,-7.80513 -42.7037434,-42.38783 -66.938566,-43.29072 -142.951476,-71.06052 -222.070826,-81.12914 -51.19783,-6.51537 -154.83955,-7.48512 -276.31827,-2.58545 l -66.45,2.68017 94.92857,5.54345 c 222.22828,12.97726 358.53862,43.28192 447.971268,99.59342 21.630804,13.61989 42.176573,24.7874 45.657288,24.81671 3.480714,0.0295 12.024285,-2.90979 18.9857134,-6.53133 z m 47.0191956,-14.22476 c 13.324807,-5.6914 -15.40621,-29.26918 -73.890499,-60.63739 -133.800486,-71.7643 -261.337846,-91.34006 -469.198166,-72.01743 -120.75282,11.22515 -167.76308,8.95682 -275.09828,-13.27398 -67.74121,-14.03027 -87.67336,-13.69808 -38.20294,0.63668 86.74009,25.13418 171.41112,32.05228 319.44922,26.10076 202.16266,-8.12747 286.19641,3.46875 398.157186,54.94365 19.143928,8.80158 51.894284,27.60227 72.77857,41.77931 38.09667,25.86146 49.20673,29.64338 66.004909,22.4684 z m 230.372845,-10.45327 c 66.00446,-36.15227 150.75916,-61.1734 249.64049,-73.69845 44.39955,-5.62397 94.18945,-6.89122 254.54602,-6.4787 109.6425,0.28204 213.58928,-1.15139 230.99285,-3.18544 27.3234,-3.19342 21.708,-3.7788 -41.13571,-4.28823 -40.02822,-0.3245 -121.19214,-3.40841 -180.36428,-6.85316 -137.99564,-8.03351 -278.16153,-8.08021 -333.87815,-0.11122 -63.48696,9.08034 -126.57237,33.32316 -181.62714,69.79671 -37.37041,24.75771 -45.27239,32.08299 -37.97143,35.20009 12.39103,5.29025 10.0878,5.89106 39.79735,-10.38158 z m -191.956329,1.60611 c 7.686873,-3.37575 -0.139228,-10.30263 -41.135713,-36.41056 -125.518034,-79.93344 -225.286318,-116.76367 -335.414278,-123.82077 -34.32414,-2.19952 -67.81444,-0.14002 -148.72142,9.1457 -83.04613,9.53122 -124.73082,12.01599 -203.63576,12.13846 -102.09875,0.15847 -111.84545,2.33264 -46.76265,10.43123 52.72533,6.5609 131.77188,5.81221 207.72221,-1.96745 96.78896,-9.91418 179.16373,-8.64806 251.92142,3.87208 104.39231,17.96382 207.885654,59.32385 270.049311,107.92242 31.763732,24.83242 31.879925,24.87965 45.97688,18.68889 z m 171.918419,-23.20508 c 45.97967,-33.86781 99.17871,-58.30952 155.48243,-71.43465 40.45052,-9.42954 51.40237,-9.9714 197.87056,-9.79002 85.2775,0.10563 203.46357,2.36187 262.63571,5.01391 111.11699,4.98016 185.82847,2.4772 237.80497,-7.96687 26.3035,-5.28539 20.9207,-5.78586 -89.0835,-8.28255 -67.37401,-1.52914 -173.50004,-7.63398 -249.97861,-14.37986 -248.34301,-21.9054 -339.54449,-11.25929 -468.66146,54.70763 -20.69335,10.57238 -54.71138,30.96 -75.59567,45.30581 -30.9426,21.25508 -36.21423,26.83457 -28.47857,30.14191 15.66923,6.69931 19.16121,5.29568 58.00414,-23.31531 z m 1000.44937,-62.13693 c 6.0913,-0.0321 11.075,-1.98047 11.075,-4.32975 0,-5.8858 -12.3032,-5.04633 -34.8071,2.37494 -16.7594,5.52687 -17.1304,6.012 -3.1643,4.1371 8.7018,-1.16818 20.8052,-2.15021 26.8964,-2.18229 z m -189.8571,-7.15864 c -4.3509,-1.18494 -11.4705,-1.18494 -15.8214,0 -4.3509,1.18495 -0.7911,2.15445 7.9107,2.15445 8.7018,0 12.2616,-0.9695 7.9107,-2.15445 z m 95.4706,-15.19378 c 23.4398,-8.12457 5.1879,-7.52109 -21.7695,0.71979 -21.4708,6.56361 -23.4865,7.91124 -8.8332,5.90555 10.4421,-1.42929 24.2133,-4.41069 30.6027,-6.62534 z m -1907.02412,-8.18752 c -22.62464,-4.57896 -55.10983,-12.10654 -72.18929,-16.72794 -17.07948,-4.62141 -32.3067,-7.55679 -33.83828,-6.52305 -5.15182,3.47719 48.8761,19.72612 85.52362,25.72128 53.84868,8.80909 67.88167,7.11841 20.50395,-2.47029 z m -129.73571,-12.23267 c -11.45768,-8.54518 -28.47857,-11.59092 -28.47857,-5.09599 0,2.71714 21.88923,10.43982 37.37013,13.18445 1.40965,0.24992 -2.59156,-3.38989 -8.89156,-8.08846 z m 79.10714,-23.03586 c 0,-0.92329 -4.27179,-2.78511 -9.49286,-4.13737 -5.22107,-1.35226 -9.49286,-0.59684 -9.49286,1.67872 0,2.27555 4.27179,4.13737 9.49286,4.13737 5.22107,0 9.49286,-0.75542 9.49286,-1.67872 z"
         id="path2998"
         inkscape:connector-curvature="0" />
    </g>
    <path
       style="fill:#d81418;fill-opacity:0.99607843;fill-rule:evenodd;stroke:none"
       d="M 134.57627,996.6 C 83.704298,967.9095 72.55952,961.08253 53.51587,946.94484 40.54139,937.31273 39.713952,936.40599 38.504556,930.49449 35.846894,917.50382 28.115071,835.90904 24.252138,780.08698 c -0.614466,-8.87952 -0.762106,-17.87712 -0.77899,-47.47551 -0.01159,-20.0858 0.137617,-37.64011 0.331272,-39.0096 0.301272,-2.13062 0.524267,-2.48999 1.545072,-2.48999 1.154747,0 27.058677,9.05726 86.426448,30.21885 15.70567,5.59827 31.56426,11.30399 35.24131,12.67934 l 6.68556,2.50069 0.26931,46.52186 c 0.40493,69.94845 1.97197,109.50793 6.09063,153.75676 1.9335,20.77249 6.03871,51.19372 9.47596,70.22062 0.8593,4.7566 1.56238,8.8308 1.56238,9.0536 0,0.2226 -0.34866,0.3727 -0.77478,0.3333 -0.42611,-0.039 -16.51363,-8.9481 -35.75004,-19.7969 z"
       id="path3004"
       inkscape:connector-curvature="0" />
    <path
       style="fill:#d81418;fill-opacity:0.99607843;fill-rule:evenodd;stroke:none"
       d="m 192.57324,994.1485 c -6.68852,-1.4639 -15.29372,-5.1329 -18.93761,-8.0743 -3.52096,-2.8422 -4.51495,-6.3996 -6.50716,-23.2881 -3.82731,-32.44524 -5.87917,-57.85373 -7.08473,-87.73096 -1.46084,-36.20419 -2.25707,-107.09238 -1.22036,-108.64724 0.16192,-0.24284 1.98788,0.64959 4.05767,1.98317 4.35713,2.80731 10.56315,5.92672 15.04961,7.56463 2.56812,0.93755 5.28298,1.14331 15.08531,1.14331 l 11.95356,0 4.64765,-2.22842 c 2.5562,-1.22564 5.38724,-2.79432 6.29119,-3.48597 1.98694,-1.52028 2.82803,-1.58682 3.16987,-0.25075 0.14168,0.55374 0.56729,6.00679 0.94579,12.11788 0.96236,15.5376 1.95762,27.43658 9.51006,113.69804 3.66102,41.81497 6.77848,77.97711 6.92768,80.36031 l 0.2713,4.3331 -3.92819,2.765 c -4.57411,3.2197 -11.01058,6.2878 -17.23566,8.2158 -3.31989,1.0282 -6.52302,1.4188 -13.03468,1.5892 -4.74821,0.1243 -9.23081,0.095 -9.9613,-0.064 l 0,-10e-5 z"
       id="path3006"
       inkscape:connector-curvature="0" />
    <path
       style="fill:#d81418;fill-opacity:0.99607843;fill-rule:evenodd;stroke:none"
       d="m 243.54302,1014.2453 c -0.1435,-0.8576 -0.76678,-7.8046 -1.38504,-15.4379 -2.04994,-25.3089 -8.18312,-98.4469 -10.6296,-126.75735 -3.50974,-40.61471 -5.7986,-69.42136 -7.04324,-88.64311 -1.2143,-18.75336 -2.21176,-40.44924 -1.88238,-40.94326 0.11696,-0.17542 4.26598,-1.19374 9.22007,-2.26297 17.1041,-3.69151 23.90125,-5.72013 74.088,-22.11163 17.2884,-5.64657 35.21877,-11.33911 39.84523,-12.6501 9.25627,-2.6229 22.05306,-5.70341 22.28191,-5.36381 0.0801,0.11897 0.51535,9.29149 0.96721,20.38355 1.13325,27.81822 1.84031,37.86374 6.2067,88.17997 3.60541,41.54747 4.71876,55.09093 5.5055,66.97073 1.4941,22.56146 2.87883,61.84064 2.30173,65.28928 -0.21507,1.28525 -0.98363,2.14868 -3.27664,3.6812 -5.79916,3.87581 -37.8924,21.25 -67.41213,36.4946 -12.70468,6.561 -68.20255,34.73 -68.42412,34.73 -0.0562,0 -0.21968,-0.7016 -0.3632,-1.5592 l 0,0 z"
       id="path3008"
       inkscape:connector-curvature="0" />
    <path
       style="fill:#d81418;fill-opacity:0.99607843;fill-rule:evenodd;stroke:none"
       d="m 189.9169,1011.7886 c -3.44255,-0.7941 -10.14363,-4.2589 -13.38658,-6.9215 -1.75117,-1.4379 -2.78626,-2.8107 -3.29985,-4.3767 -0.92808,-2.8297 -2.81849,-12.4254 -2.53242,-12.8544 0.11565,-0.1735 2.09651,0.8132 4.40187,2.1927 7.80275,4.669 13.97629,6.593 23.00739,7.1704 11.51304,0.7361 22.53817,-2.1916 34.28821,-9.1051 2.42236,-1.4252 4.47834,-2.4804 4.56883,-2.3446 0.0905,0.1357 0.27945,2.5256 0.41989,5.3107 0.23303,4.621 0.16835,5.2028 -0.73967,6.6524 -1.98414,3.1676 -12.38906,9.4792 -21.04964,12.7687 -3.89926,1.4809 -5.53601,1.7077 -13.72447,1.9009 -5.11347,0.1205 -10.49259,-0.056 -11.95356,-0.3935 l 0,0 z"
       id="path3010"
       inkscape:connector-curvature="0" />
    <path
       style="fill:#d81418;fill-opacity:0.99607843;fill-rule:evenodd;stroke:none"
       d="m 199.82364,1034.3824 c -5.85129,-0.8273 -10.63154,-3.0052 -16.89352,-7.6964 -4.40478,-3.3001 -6.04604,-5.2987 -6.96839,-8.4855 -0.8939,-3.0886 -2.01571,-10.2041 -1.68657,-10.6977 0.11941,-0.1791 2.29455,0.8484 4.83363,2.2835 8.03013,4.5384 10.04399,5.0241 20.76941,5.0084 8.24769,-0.016 10.16883,-0.2202 14.38856,-1.5579 5.70474,-1.8085 13.44236,-5.5655 19.27027,-9.3565 2.90433,-1.8892 4.23261,-2.4635 4.45426,-1.9256 0.37821,0.9178 1.29593,9.8395 1.27373,12.3829 -0.0335,3.8414 -1.46075,5.8983 -6.99834,10.0862 -6.50762,4.9214 -15.32044,8.8528 -21.58866,9.6308 -6.06667,0.753 -7.53416,0.7973 -10.85438,0.3278 l 0,0 z"
       id="path3012"
       inkscape:connector-curvature="0" />
    <path
       style="fill:#d81418;fill-opacity:0.99607843;fill-rule:evenodd;stroke:none"
       d="m 186.67375,766.75242 c -5.30368,-0.68819 -13.46447,-3.29852 -17.5856,-5.62497 -1.57695,-0.89022 -4.65795,-2.96745 -6.84665,-4.61605 l -3.97944,-2.99747 0,-6.30128 c 0,-3.4657 0.0609,-6.30128 0.13533,-6.30128 0.0744,0 1.91727,1.07814 4.09521,2.39586 11.13745,6.73852 22.85541,10.08682 32.6992,9.3435 7.53571,-0.56903 10.58935,-1.47948 21.5873,-6.43633 0.65131,-0.29353 1.29877,-0.36181 1.43886,-0.15179 0.14007,0.21009 0.25469,3.13829 0.25469,6.50714 l 0,6.12517 -1.88158,1.1481 c -10.17809,6.2104 -19.21662,8.29782 -29.91732,6.90932 z"
       id="path3014"
       inkscape:connector-curvature="0" />
    <path
       style="fill:#d81418;fill-opacity:0.99607843;fill-rule:evenodd;stroke:none"
       d="m 186.15372,774.97763 c -6.7885,-1.09035 -14.16678,-3.95153 -20.47167,-7.93857 -5.29717,-3.3498 -7.41999,-5.78778 -7.41999,-8.52161 0,-0.97949 0.14942,-1.66663 0.33204,-1.52699 6.52747,4.99144 12.73786,8.37926 19.43986,10.6046 3.74782,1.24444 5.77952,1.45282 14.53928,1.4913 11.41325,0.0502 14.95011,-0.776 22.24692,-5.19637 l 3.65249,-2.21265 0,1.61998 c 0,4.49382 -7.2286,9.21993 -17.51077,11.44867 -2.92109,0.63317 -11.4751,0.76697 -14.80816,0.23164 z"
       id="path3016"
       inkscape:connector-curvature="0" />
    <path
       style="fill:#d81418;fill-opacity:0.99607843;fill-rule:evenodd;stroke:none"
       d="m 215.15486,737.59771 c -1.34094,-3.18581 -5.19437,-7.84619 -8.4869,-10.26415 -7.6072,-5.58653 -21.60522,-6.55358 -32.38047,-2.23699 -5.08955,2.03887 -5.32754,2.10596 -4.44305,1.2525 2.94113,-2.83794 12.69497,-5.45529 20.29381,-5.44566 8.4753,0.0109 15.1219,2.51398 20.91535,7.87711 2.85249,2.64058 6.09087,8.06293 6.09087,10.1985 0,2.02457 -0.78561,1.47913 -1.98961,-1.38131 z"
       id="path3018"
       inkscape:connector-curvature="0" />
    <path
       style="fill:#ffffff;fill-opacity:0;fill-rule:evenodd;stroke:none"
       d="m 148.8677,729.16475 c -2.2729,-0.76303 -46.53925,-16.87767 -46.92885,-17.08388 -0.2435,-0.12881 0.1051,-0.56135 0.77477,-0.96103 1.8135,-1.08245 1.52114,-2.56235 -0.66409,-3.36157 -1.46903,-0.53728 -0.47403,-0.62064 4.53793,-0.38019 9.22171,0.44241 18.46626,3.04764 27.30728,7.69557 4.86141,2.55573 15.41942,10.60343 14.73873,11.23437 -0.32269,0.29912 -0.0554,0.96194 0.75226,1.86501 1.24805,1.39559 1.16403,1.55644 -0.51803,0.99172 l 0,0 z"
       id="path3792"
       inkscape:connector-curvature="0" />
    <path
       style="fill:#ffffff;fill-opacity:0;fill-rule:evenodd;stroke:none"
       d="m 148.8677,729.16475 c -2.2729,-0.76303 -46.53925,-16.87767 -46.92885,-17.08388 -0.2435,-0.12881 0.1051,-0.56135 0.77477,-0.96103 1.8135,-1.08245 1.52114,-2.56235 -0.66409,-3.36157 -1.46903,-0.53728 -0.47403,-0.62064 4.53793,-0.38019 9.22171,0.44241 18.46626,3.04764 27.30728,7.69557 4.86141,2.55573 15.41942,10.60343 14.73873,11.23437 -0.32269,0.29912 -0.0554,0.96194 0.75226,1.86501 1.24805,1.39559 1.16403,1.55644 -0.51803,0.99172 l 0,0 z"
       id="path3794"
       inkscape:connector-curvature="0" />
    <path
       style="fill:#ffffff;fill-opacity:0;fill-rule:evenodd;stroke:none"
       d=""
       id="path3796"
       inkscape:connector-curvature="0" />
    <path
       style="fill:#ffffff;fill-opacity:0;fill-rule:evenodd;stroke:none"
       d="m 151.68903,712.35085 c -8.10938,-6.28053 -29.17392,-14.0712 -42.36252,-15.66771 -2.02426,-0.24504 -3.93577,-0.82843 -4.2478,-1.29639 -0.40197,-0.60288 -1.65197,-0.77406 -4.28859,-0.58734 -3.26529,0.23126 -3.50427,0.17626 -1.95035,-0.44891 2.04929,-0.82447 21.76635,-0.24266 27.44895,0.80997 4.10374,0.76015 11.27271,3.29574 16.11186,5.69858 4.50633,2.23759 12.3707,7.78025 11.42629,8.05302 -1.03776,0.29976 -0.94343,2.05504 0.20933,3.89537 1.25802,2.00837 0.69388,1.89863 -2.34717,-0.45659 l 0,0 z"
       id="path3798"
       inkscape:connector-curvature="0" />
    <path
       style="fill:#ffffff;fill-opacity:0;fill-rule:evenodd;stroke:none"
       d=""
       id="path3800"
       inkscape:connector-curvature="0" />
    <path
       style="fill:#ffffff;fill-opacity:0;fill-rule:evenodd;stroke:none"
       d="m 174.83626,712.68821 c -0.23676,-0.21494 -1.4518,-1.41888 -2.70008,-2.67539 -3.04747,-3.06752 -4.64909,-4.50712 -7.59155,-6.8236 -9.87659,-7.77537 -23.03525,-13.98557 -36.62288,-17.28412 -4.18103,-1.01499 -7.66485,-1.32039 -16.28323,-1.42743 -6.19359,-0.0769 -8.8492,0.0203 -13.85319,0.50758 -3.002443,0.29235 -3.863301,0.30107 -3.754909,0.038 0.151418,-0.36745 3.310639,-1.32423 6.935469,-2.10048 8.07452,-1.72909 16.04928,-2.19058 23.31218,-1.34901 9.51274,1.10224 18.55463,4.45329 27.16519,10.06782 5.92946,3.8663 14.0603,10.32711 19.12763,15.19888 2.83825,2.72872 3.76158,3.84568 4.56565,5.52313 0.40139,0.83739 0.33891,0.90492 -0.30028,0.32458 z"
       id="path3802"
       inkscape:connector-curvature="0" />
    <path
       style="fill:#ffffff;fill-opacity:0;fill-rule:evenodd;stroke:none"
       d="m 222.47681,736.90339 c -0.73377,-0.55769 -1.67983,-2.44365 -1.90822,-3.80399 -0.0884,-0.52628 -0.0833,-0.5618 0.1252,-0.88828 0.47642,-0.74581 1.09481,-0.86757 2.09543,-0.41261 0.25886,0.11772 0.43396,0.13632 0.5674,0.0602 0.16593,-0.0946 0.19302,-0.1846 0.19302,-0.64117 0,-0.45783 0.0408,-0.59224 0.29537,-0.97412 0.47329,-0.70981 1.20704,-1.37919 2.79603,-2.55064 3.11308,-2.29507 7.20476,-4.47015 11.23553,-5.97264 5.12607,-1.91075 8.9307,-2.44463 23.08299,-3.23906 9.76915,-0.54837 12.37181,-0.72946 16.98317,-1.18166 6.18135,-0.60613 10.06282,-1.20374 17.10055,-2.63281 6.56317,-1.33271 9.89933,-1.94723 10.50161,-1.93439 l 0.22049,0.004 -0.19566,0.15695 c -0.98391,0.78914 -8.91906,3.11799 -12.65324,3.71352 -0.8224,0.13117 -1.52209,0.10647 -2.12742,-0.0752 -0.26052,-0.0782 -0.26233,-0.0757 -0.20951,0.28498 0.0474,0.32365 0.0247,0.38993 -0.20576,0.6001 -0.30121,0.27472 -1.96136,1.08623 -3.58729,1.75356 -9.39959,3.85776 -34.05629,11.33708 -48.79727,14.80205 -4.44098,1.04389 -13.28321,2.91817 -14.6744,3.11054 -0.42484,0.0588 -0.56298,0.0291 -0.83802,-0.17995 l 0,0 z"
       id="path3804"
       inkscape:connector-curvature="0" />
    <path
       style="fill:#ffffff;fill-opacity:0;fill-rule:evenodd;stroke:none"
       d="m 217.56035,729.15533 c -0.17594,-0.42695 1.09067,-2.08629 3.05881,-4.00725 7.04861,-6.87966 17.09233,-12.21749 29.1049,-15.46806 3.92992,-1.06345 7.93574,-1.86424 12.01814,-2.40253 10.31866,-1.36059 32.35205,-2.84646 38.27082,-2.58089 2.5843,0.11601 2.39714,0.15508 -3.02907,0.63333 -4.20299,0.37043 -5.02877,0.47875 -5.87649,0.7709 -0.94446,0.32548 -1.26673,0.77306 -1.45196,2.01659 -0.3014,2.02331 -0.26967,2.65635 0.14629,2.917 0.37004,0.2319 0.84836,0.21141 2.9477,-0.12631 1.94882,-0.31346 3.58722,-0.39038 3.31776,-0.15571 -0.7776,0.67696 -9.00018,1.97047 -18.86801,2.96817 -5.24468,0.53027 -9.54799,0.84694 -17.68756,1.30154 -6.33463,0.35381 -12.65094,1.07233 -16.43532,1.86964 -7.06173,1.4878 -13.27843,4.40283 -20.56817,9.64448 -1.21356,0.87262 -2.40802,1.71448 -2.65436,1.87079 -1.16046,0.73645 -2.16351,1.06371 -2.29348,0.74831 l 0,0 z m 2.90292,-2.04454 c 0.95459,-0.59821 2.58261,-2.88529 2.04937,-2.87904 -0.20103,0.002 -0.96458,0.61353 -1.47383,1.17974 -1.12707,1.25312 -1.46751,2.25823 -0.57554,1.6993 z"
       id="path3806"
       inkscape:connector-curvature="0" />
    <path
       style="fill:#ffffff;fill-opacity:0;fill-rule:evenodd;stroke:none"
       d="m 214.23627,724.83471 c -0.71712,-0.46317 -4.94354,-3.86317 -5.1071,-4.10848 -0.0558,-0.0836 5.78917,-4.47543 7.33762,-5.51326 0.85661,-0.57414 2.50139,-1.52323 3.40446,-1.96447 0.55098,-0.26921 0.81517,-0.3277 1.53808,-0.34048 0.93918,-0.0166 1.12287,-0.11475 1.12287,-0.59974 0,-0.54782 0.73928,-1.11575 2.9701,-2.2818 4.12051,-2.15378 12.08085,-5.15164 17.7306,-6.67733 6.22436,-1.68086 12.01081,-2.05852 36.15771,-2.35987 10.2309,-0.12772 17.93181,-0.15086 17.86703,-0.0536 -0.0483,0.0723 -2.09839,0.23082 -10.54941,0.8153 -15.32337,1.05979 -24.77306,2.13706 -32.51846,3.70712 -11.13994,2.25816 -20.01072,5.9017 -29.09204,11.94912 -2.22005,1.47837 -3.37951,2.34862 -6.30992,4.73603 -2.2846,1.8613 -3.81082,3.02446 -3.96454,3.02154 -0.043,-8.8e-4 -0.30721,-0.1493 -0.587,-0.33005 z m 1.76093,-1.16345 c 0.7327,-0.56015 2.06846,-1.99625 2.55034,-2.7419 1.10272,-1.70629 1.86872,-3.96384 1.87071,-5.5133 0.001,-1.20253 -0.31221,-1.32247 -1.56443,-0.59802 -1.1643,0.67361 -8.53937,5.63031 -8.67096,5.82766 -0.0579,0.0868 3.17842,2.7484 3.89109,3.20012 0.60482,0.38334 1.27282,0.32269 1.92325,-0.17456 z"
       id="path3808"
       inkscape:connector-curvature="0" />
    <path
       style="fill:#ffffff;fill-opacity:0;fill-rule:evenodd;stroke:none"
       d="m 205.27392,718.94569 c -0.0913,-0.22174 0.0508,-0.81642 0.27587,-1.15398 0.32478,-0.48713 0.72751,-0.73467 1.45867,-0.89663 0.98691,-0.21861 1.27339,-0.57241 1.2773,-1.57754 0.003,-0.81546 0.20453,-1.44168 0.68527,-2.13139 0.60647,-0.8701 4.62278,-4.66843 6.15664,-5.8225 6.60309,-4.9682 16.69695,-10.04545 22.58582,-11.36075 3.92143,-0.87589 12.0998,-1.3498 23.31413,-1.35103 9.33539,-8.9e-4 18.55539,0.35645 25.91542,1.00475 2.07448,0.18275 13.0887,1.30951 13.50044,1.38113 0.12913,0.0225 -3.3399,0.0506 -7.70896,0.0625 -13.89941,0.038 -24.87554,0.25379 -30.79666,0.60544 -10.66126,0.63313 -18.49458,1.98571 -26.14,4.51356 -1.78205,0.58921 -2.41801,0.82191 -6.06541,2.21936 -3.81537,1.46181 -6.61619,2.30252 -7.67079,2.30252 -0.22623,0 -0.54862,-0.0617 -0.7164,-0.1371 -0.39531,-0.17763 -0.52798,-0.0182 -0.34094,0.41006 0.12801,0.293 0.12474,0.30604 -0.1925,0.76779 -0.63846,0.92929 -1.87084,1.91558 -4.93201,3.94721 -3.66577,2.43289 -6.01529,4.17653 -7.05577,5.23624 -0.43341,0.44142 -3.10428,2.10054 -3.38147,2.10054 -0.0655,0 -0.14138,-0.0541 -0.16865,-0.12022 z m 5.22925,-4.71406 c 0.79925,-0.46573 3.76225,-2.71465 5.04786,-3.83136 1.61506,-1.40284 2.75742,-2.59838 3.47729,-3.63917 0.69069,-0.9986 0.85191,-1.39492 0.5103,-1.2545 -0.36387,0.14961 -3.83277,2.80097 -5.26321,4.02287 -2.94503,2.51562 -4.81321,4.46006 -4.81321,5.00968 0,0.16818 0.45552,0.0336 1.04097,-0.30752 l 0,0 z"
       id="path3810"
       inkscape:connector-curvature="0" />
    <path
       style="fill:#ffffff;fill-opacity:0;fill-rule:evenodd;stroke:none"
       d="m 205.07947,712.21369 c 0,-0.0243 0.48424,-0.58854 1.07611,-1.25375 1.18007,-1.3263 2.40623,-3.04562 2.35106,-3.29666 -0.0973,-0.44264 -0.74426,-0.14726 -2.24511,1.02474 -0.5336,0.41672 -0.98382,0.73722 -1.00046,0.71224 -0.0403,-0.0605 3.22114,-3.27247 4.74899,-4.67698 12.37667,-11.37756 24.30227,-17.02203 39.24911,-18.57686 7.17445,-0.74632 14.63285,-0.47969 29.46619,1.05333 5.69099,0.58817 11.87799,1.38546 13.69017,1.76418 0.4487,0.0938 0.85371,0.17209 0.90002,0.17406 0.0463,0.002 0.0314,0.0482 -0.0331,0.10255 -0.0645,0.0545 -0.62806,0.13539 -1.25221,0.17969 -1.99364,0.14164 -4.71701,0.56624 -6.51505,1.01567 -2.04077,0.5101 -1.74705,0.69461 1.70185,1.06913 l 1.40874,0.1529 -1.68266,0.0699 c -0.92548,0.0385 -5.80325,0.0182 -10.83949,-0.0452 -18.20621,-0.22877 -26.98436,-0.1543 -32.20541,0.27324 -7.70247,0.63069 -13.06094,2.0863 -19.40934,5.27245 -4.29506,2.15562 -9.32169,5.92338 -15.69182,11.76193 -2.03981,1.8696 -3.61625,3.26764 -3.68459,3.26764 -0.0182,0 -0.0329,-0.0199 -0.0329,-0.0443 z m 4.96819,-5.31783 c 0.2591,-0.23773 1.10504,-1.12376 1.87984,-1.96899 2.09389,-2.28416 2.45856,-2.69667 2.46209,-2.78509 0.008,-0.20838 -3.68455,2.56134 -4.51907,3.38936 -0.72733,0.72167 -0.91946,1.063 -0.84589,1.50265 0.074,0.44222 0.4452,0.39218 1.02303,-0.13789 l 0,0 z"
       id="path3812"
       inkscape:connector-curvature="0" />
  </g>
</svg>
