<?xml version="1.0" encoding="UTF-8" standalone="no"?>
<!-- Created with Inkscape (http://www.inkscape.org/) -->

<svg
   xmlns:dc="http://purl.org/dc/elements/1.1/"
   xmlns:cc="http://creativecommons.org/ns#"
   xmlns:rdf="http://www.w3.org/1999/02/22-rdf-syntax-ns#"
   xmlns:svg="http://www.w3.org/2000/svg"
   xmlns="http://www.w3.org/2000/svg"
   xmlns:sodipodi="http://sodipodi.sourceforge.net/DTD/sodipodi-0.dtd"
   xmlns:inkscape="http://www.inkscape.org/namespaces/inkscape"
   width="400"
   height="400"
   id="svg2"
   version="1.1"
   inkscape:version="0.48.3.1 r9886"
   sodipodi:docname="image1.svg">
  <defs
     id="defs4" />
  <sodipodi:namedview
     id="base"
     pagecolor="#ffffff"
     bordercolor="#666666"
     borderopacity="1.0"
     inkscape:pageopacity="0.0"
     inkscape:pageshadow="2"
     inkscape:zoom="0.98994949"
     inkscape:cx="73.176658"
     inkscape:cy="361.10614"
     inkscape:document-units="px"
     inkscape:current-layer="layer1"
     showgrid="false"
     inkscape:window-width="1680"
     inkscape:window-height="953"
     inkscape:window-x="0"
     inkscape:window-y="44"
     inkscape:window-maximized="1" />
  <metadata
     id="metadata7">
    <rdf:RDF>
      <cc:Work
         rdf:about="">
        <dc:format>image/svg+xml</dc:format>
        <dc:type
           rdf:resource="http://purl.org/dc/dcmitype/StillImage" />
        <dc:title />
      </cc:Work>
    </rdf:RDF>
  </metadata>
  <g
     inkscape:label="Layer 1"
     inkscape:groupmode="layer"
     id="layer1"
     transform="translate(0,-652.36218)">
    <path
       sodipodi:type="arc"
       style="fill:#bb0e00;fill-opacity:1;fill-rule:evenodd;stroke:#7a7a7a;stroke-width:2;stroke-linejoin:bevel;stroke-miterlimit:4;stroke-opacity:1;stroke-dasharray:none"
       id="path2996"
       sodipodi:cx="485.71429"
       sodipodi:cy="132.36218"
       sodipodi:rx="134.28572"
       sodipodi:ry="134.28572"
       d="m 620.00002,132.36218 c 0,74.16396 -60.12177,134.28572 -134.28573,134.28572 -74.16395,0 -134.28572,-60.12176 -134.28572,-134.28572 0,-74.163953 60.12177,-134.2857182 134.28572,-134.2857182 74.16396,0 134.28573,60.1217652 134.28573,134.2857182 z"
       transform="matrix(0.37750643,0,0,0.37750643,-112.41376,837.14079)" />
    <path
       sodipodi:type="arc"
       style="fill:#bb0e00;fill-opacity:1;fill-rule:evenodd;stroke:#7a7a7a;stroke-width:2;stroke-linejoin:bevel;stroke-miterlimit:4;stroke-opacity:1;stroke-dasharray:none"
       id="path2996-7"
       sodipodi:cx="485.71429"
       sodipodi:cy="132.36218"
       sodipodi:rx="134.28572"
       sodipodi:ry="134.28572"
       d="m 620.00002,132.36218 c 0,74.16396 -60.12177,134.28572 -134.28573,134.28572 -74.16395,0 -134.28572,-60.12176 -134.28572,-134.28572 0,-74.163953 60.12177,-134.2857182 134.28572,-134.2857182 74.16396,0 134.28573,60.1217652 134.28573,134.2857182 z"
       transform="matrix(0.32967036,0,0,0.32967036,59.666304,660.11221)" />
    <path
       sodipodi:type="arc"
       style="fill:#bb0e00;fill-opacity:1;fill-rule:evenodd;stroke:#7a7a7a;stroke-width:2;stroke-linejoin:bevel;stroke-miterlimit:4;stroke-opacity:1;stroke-dasharray:none"
       id="path2996-2"
       sodipodi:cx="485.71429"
       sodipodi:cy="132.36218"
       sodipodi:rx="134.28572"
       sodipodi:ry="134.28572"
       d="m 620.00002,132.36218 c 0,74.16396 -60.12177,134.28572 -134.28573,134.28572 -74.16395,0 -134.28572,-60.12176 -134.28572,-134.28572 0,-74.163953 60.12177,-134.2857182 134.28572,-134.2857182 74.16396,0 134.28573,60.1217652 134.28573,134.2857182 z"
       transform="matrix(0.32169768,0,0,0.32169768,157.37608,812.17006)" />
    <rect
       style="fill:#817a81;fill-opacity:1;fill-rule:evenodd;stroke:#7a7a7a;stroke-width:0.59276778;stroke-linejoin:bevel;stroke-miterlimit:4;stroke-opacity:1;stroke-dasharray:none"
       id="rect3816"
       width="105.00458"
       height="16.936224"
       x="-116.85378"
       y="873.11047"
       transform="matrix(0.96580912,-0.25925421,0.25925421,0.96580912,0,0)" />
    <rect
       style="fill:#817a81;fill-opacity:1;fill-rule:evenodd;stroke:#7a7a7a;stroke-width:0.59276778;stroke-linejoin:bevel;stroke-miterlimit:4;stroke-opacity:1;stroke-dasharray:none"
       id="rect3816-8"
       width="105.00458"
       height="16.936224"
       x="-1006.5959"
       y="-103.32941"
       transform="matrix(-0.34974097,-0.93684644,0.93684644,-0.34974097,0,0)" />
    <rect
       style="fill:#817a81;fill-opacity:1;fill-rule:evenodd;stroke:#7a7a7a;stroke-width:0.59276778;stroke-linejoin:bevel;stroke-miterlimit:4;stroke-opacity:1;stroke-dasharray:none"
       id="rect3816-8-5"
       width="105.00458"
       height="16.936224"
       x="-178.73755"
       y="-895.57947"
       transform="matrix(-0.992258,0.12419365,-0.12419365,-0.992258,0,0)" />
    <rect
       style="fill:#817a81;fill-opacity:1;fill-rule:evenodd;stroke:#7a7a7a;stroke-width:0.59276778;stroke-linejoin:bevel;stroke-miterlimit:4;stroke-opacity:1;stroke-dasharray:none"
       id="rect3816-8-5-4"
       width="105.00458"
       height="16.936224"
       x="750.32367"
       y="-216.7166"
       transform="matrix(0.01440542,0.99989624,-0.99989624,0.01440542,0,0)" />
    <path
       sodipodi:type="arc"
       style="fill:#00c7d2;fill-opacity:1;fill-rule:evenodd;stroke:#7a7a7a;stroke-width:2;stroke-linejoin:bevel;stroke-miterlimit:4;stroke-opacity:1;stroke-dasharray:none"
       id="path2996-7-3"
       sodipodi:cx="485.71429"
       sodipodi:cy="132.36218"
       sodipodi:rx="134.28572"
       sodipodi:ry="134.28572"
       d="m 620.00002,132.36218 c 0,74.16396 -60.12177,134.28572 -134.28573,134.28572 -74.16395,0 -134.28572,-60.12176 -134.28572,-134.28572 0,-74.163953 60.12177,-134.2857182 134.28572,-134.2857182 74.16396,0 134.28573,60.1217652 134.28573,134.2857182 z"
       transform="matrix(0.34561573,0,0,0.34561573,49.764235,811.16141)" />
    <path
       sodipodi:type="arc"
       style="fill:#bb0e00;fill-opacity:1;fill-rule:evenodd;stroke:#7a7a7a;stroke-width:2;stroke-linejoin:bevel;stroke-miterlimit:4;stroke-opacity:1;stroke-dasharray:none"
       id="path2996-0"
       sodipodi:cx="485.71429"
       sodipodi:cy="132.36218"
       sodipodi:rx="134.28572"
       sodipodi:ry="134.28572"
       d="m 620.00002,132.36218 c 0,74.16396 -60.12177,134.28572 -134.28573,134.28572 -74.16395,0 -134.28572,-60.12176 -134.28572,-134.28572 0,-74.163953 60.12177,-134.2857182 134.28572,-134.2857182 74.16396,0 134.28573,60.1217652 134.28573,134.2857182 z"
       transform="matrix(0.37750643,0,0,0.37750643,83.889579,925.58515)" />
    <path
       sodipodi:type="arc"
       style="fill:#817a81;fill-opacity:1;fill-rule:evenodd;stroke:#7a7a7a;stroke-width:2;stroke-linejoin:bevel;stroke-miterlimit:4;stroke-opacity:1;stroke-dasharray:none"
       id="path3872"
       sodipodi:cx="488.57144"
       sodipodi:cy="463.79074"
       sodipodi:rx="68.571426"
       sodipodi:ry="68.571426"
       d="m 557.14287,463.79074 c 0,37.87095 -30.70048,68.57143 -68.57143,68.57143 -37.87095,0 -68.57142,-30.70048 -68.57142,-68.57143 0,-37.87095 30.70047,-68.57143 68.57142,-68.57143 37.87095,0 68.57143,30.70048 68.57143,68.57143 z"
       transform="matrix(0.37750643,0,0,0.15586557,35.353049,747.41737)" />
    <path
       sodipodi:type="arc"
       style="fill:#817a81;fill-opacity:1;fill-rule:evenodd;stroke:#7a7a7a;stroke-width:2;stroke-linejoin:bevel;stroke-miterlimit:4;stroke-opacity:1;stroke-dasharray:none"
       id="path3872-3"
       sodipodi:cx="488.57144"
       sodipodi:cy="463.79074"
       sodipodi:rx="68.571426"
       sodipodi:ry="68.571426"
       d="m 557.14287,463.79074 c 0,37.87095 -30.70048,68.57143 -68.57143,68.57143 -37.87095,0 -68.57142,-30.70048 -68.57142,-68.57143 0,-37.87095 30.70047,-68.57143 68.57142,-68.57143 37.87095,0 68.57143,30.70048 68.57143,68.57143 z"
       transform="matrix(-0.05337701,-0.3737138,0.15429966,-0.0220384,236.32655,1051.3328)" />
    <path
       sodipodi:type="arc"
       style="fill:#817a81;fill-opacity:1;fill-rule:evenodd;stroke:#7a7a7a;stroke-width:2;stroke-linejoin:bevel;stroke-miterlimit:4;stroke-opacity:1;stroke-dasharray:none"
       id="path3872-6-0"
       sodipodi:cx="488.57144"
       sodipodi:cy="463.79074"
       sodipodi:rx="68.571426"
       sodipodi:ry="68.571426"
       d="m 557.14287,463.79074 c 0,37.87095 -30.70048,68.57143 -68.57143,68.57143 -37.87095,0 -68.57142,-30.70048 -68.57142,-68.57143 0,-37.87095 30.70047,-68.57143 68.57142,-68.57143 37.87095,0 68.57143,30.70048 68.57143,68.57143 z"
       transform="matrix(0.35202719,-0.13633769,0.05629136,0.14534566,31.940664,889.00556)" />
    <path
       style="fill:#817a81;fill-opacity:1;fill-rule:evenodd;stroke:#7a7a7a;stroke-width:0.69123137;stroke-linejoin:bevel;stroke-miterlimit:4;stroke-opacity:1;stroke-dasharray:none"
       d="m 173.19515,845.92118 c -0.94198,3.68571 -1.42745,7.54653 -1.42745,11.52575 0,12.31314 4.79825,23.49707 12.62288,31.80492 1.46786,-5.01295 1.80842,-12.03482 0.67242,-19.63033 -1.81102,-12.10902 -6.80574,-21.73392 -11.86785,-23.70034 z"
       id="path2996-7-3-3"
       inkscape:connector-curvature="0" />
    <path
       style="fill:#7a7a7a;fill-opacity:1;fill-rule:evenodd;stroke:#7a7a7a;stroke-width:0.75501293;stroke-linejoin:bevel;stroke-miterlimit:4;stroke-opacity:1;stroke-dasharray:none"
       d="m 112.42356,859.75955 c -0.18335,-0.008 -0.37056,-0.003 -0.55448,0.0119 -5.88548,0.45151 -9.76435,12.37137 -8.67084,26.62601 1.04148,13.57638 6.22165,24.3678 11.79709,24.9744 4.08717,-7.30948 6.41759,-15.73331 6.41759,-24.70306 0,-9.75279 -2.75366,-18.85964 -7.52652,-26.59061 -0.4829,-0.17637 -0.97233,-0.29613 -1.46284,-0.31852 z"
       id="path2996-3"
       inkscape:connector-curvature="0" />
    <path
       style="fill:#7a7a7a;fill-opacity:1;fill-rule:evenodd;stroke:#7a7a7a;stroke-width:0.65934068;stroke-linejoin:bevel;stroke-miterlimit:4;stroke-opacity:1;stroke-dasharray:none"
       d="m 220.67203,730.7267 c -13.33399,0 -24.31148,4.15893 -25.72942,9.50843 7.10664,4.86084 15.70265,7.69169 24.96261,7.69169 9.79288,0 18.83447,-3.18139 26.16592,-8.56468 -2.31528,-4.92234 -12.80029,-8.63544 -25.39911,-8.63544 z"
       id="path2996-7-0"
       inkscape:connector-curvature="0" />
    <path
       sodipodi:type="arc"
       style="fill:#f31200;fill-opacity:1;fill-rule:evenodd;stroke:none"
       id="path2996-39"
       sodipodi:cx="485.71429"
       sodipodi:cy="132.36218"
       sodipodi:rx="134.28572"
       sodipodi:ry="134.28572"
       d="m 620.00002,132.36218 a 134.28572,134.28572 0 1 1 -268.57145,0 134.28572,134.28572 0 1 1 268.57145,0 z"
       transform="matrix(0.18873229,-0.02978443,0.03662508,0.23207881,-37.410604,873.96758)" />
    <path
       sodipodi:type="arc"
       style="fill:#f31200;fill-opacity:1;fill-rule:evenodd;stroke:none"
       id="path2996-39-3"
       sodipodi:cx="485.71429"
       sodipodi:cy="132.36218"
       sodipodi:rx="134.28572"
       sodipodi:ry="134.28572"
       d="m 620.00002,132.36218 a 134.28572,134.28572 0 1 1 -268.57145,0 134.28572,134.28572 0 1 1 268.57145,0 z"
       transform="matrix(0.07125199,0.19306221,-0.23856161,0.08719114,274.35095,878.74228)" />
    <path
       sodipodi:type="arc"
       style="fill:#f31200;fill-opacity:1;fill-rule:evenodd;stroke:none"
       id="path2996-39-3-8"
       sodipodi:cx="485.71429"
       sodipodi:cy="132.36218"
       sodipodi:rx="134.28572"
       sodipodi:ry="134.28572"
       d="m 620.00002,132.36218 a 134.28572,134.28572 0 1 1 -268.57145,0 134.28572,134.28572 0 1 1 268.57145,0 z"
       transform="matrix(0.15065077,-0.03191709,0.03841499,0.18926593,246.17065,839.35916)" />
    <path
       sodipodi:type="arc"
       style="fill:#f31200;fill-opacity:1;fill-rule:evenodd;stroke:none"
       id="path2996-39-3-8-3"
       sodipodi:cx="485.71429"
       sodipodi:cy="132.36218"
       sodipodi:rx="134.28572"
       sodipodi:ry="134.28572"
       d="m 620.00002,132.36218 a 134.28572,134.28572 0 1 1 -268.57145,0 134.28572,134.28572 0 1 1 268.57145,0 z"
       transform="matrix(0.00456379,-0.1684481,0.21607004,0.00537992,191.22984,772.86584)" />
    <path
       sodipodi:type="arc"
       style="fill:#00e9f6;fill-opacity:1;fill-rule:evenodd;stroke:none"
       id="path2996-7-3-2"
       sodipodi:cx="485.71429"
       sodipodi:cy="132.36218"
       sodipodi:rx="134.28572"
       sodipodi:ry="134.28572"
       d="m 620.00002,132.36218 a 134.28572,134.28572 0 1 1 -268.57145,0 134.28572,134.28572 0 1 1 268.57145,0 z"
       transform="matrix(0.20314645,-0.05789138,0.04922895,0.1635017,113.25832,862.23847)" />
  </g>
</svg>
