<?xml version="1.0" encoding="UTF-8" standalone="no"?>
<!-- Created with Inkscape (http://www.inkscape.org/) -->

<svg
   xmlns:dc="http://purl.org/dc/elements/1.1/"
   xmlns:cc="http://creativecommons.org/ns#"
   xmlns:rdf="http://www.w3.org/1999/02/22-rdf-syntax-ns#"
   xmlns:svg="http://www.w3.org/2000/svg"
   xmlns="http://www.w3.org/2000/svg"
   xmlns:sodipodi="http://sodipodi.sourceforge.net/DTD/sodipodi-0.dtd"
   xmlns:inkscape="http://www.inkscape.org/namespaces/inkscape"
   width="400"
   height="400"
   id="svg4246"
   version="1.1"
   inkscape:version="0.48.3.1 r9886"
   sodipodi:docname="image2.svg">
  <defs
     id="defs4248" />
  <sodipodi:namedview
     id="base"
     pagecolor="#ffffff"
     bordercolor="#666666"
     borderopacity="1.0"
     inkscape:pageopacity="0.0"
     inkscape:pageshadow="2"
     inkscape:zoom="0.98994949"
     inkscape:cx="121.3733"
     inkscape:cy="55.912719"
     inkscape:document-units="px"
     inkscape:current-layer="layer1"
     showgrid="false"
     inkscape:window-width="1680"
     inkscape:window-height="953"
     inkscape:window-x="0"
     inkscape:window-y="44"
     inkscape:window-maximized="1" />
  <metadata
     id="metadata4251">
    <rdf:RDF>
      <cc:Work
         rdf:about="">
        <dc:format>image/svg+xml</dc:format>
        <dc:type
           rdf:resource="http://purl.org/dc/dcmitype/StillImage" />
        <dc:title />
      </cc:Work>
    </rdf:RDF>
  </metadata>
  <g
     inkscape:label="Layer 1"
     inkscape:groupmode="layer"
     id="layer1"
     transform="translate(0,-652.36218)">
    <path
       style="fill:#ffff00;fill-opacity:1;fill-rule:evenodd;stroke:#c2b700;stroke-width:1.69297826000000007;stroke-linejoin:bevel;stroke-miterlimit:4;stroke-opacity:1;stroke-dasharray:none"
       d="m 324.404,964.4555 c -3.0262,-0.36544 -7.68118,-1.48522 -10.34441,-2.48842 -5.24217,-1.97461 -12.43794,-7.881 -12.92531,-10.60924 -0.16635,-0.93113 -0.37194,-1.88344 -0.4569,-2.11622 -0.39158,-1.07297 0.18766,-5.71871 0.96031,-7.70209 1.40602,-3.60927 9.14293,-6.91646 18.60406,-7.95244 1.59087,-0.17422 4.94529,-0.54265 7.45422,-0.81878 21.00147,-2.31132 31.26604,-11.26716 33.99459,-29.66034 2.50163,-16.86337 -8.78334,-38.95289 -23.79608,-46.5791 -9.62533,-4.88952 -18.23435,-4.5256 -40.11358,1.69564 -15.66829,4.4552 -13.84276,4.04782 -17.60595,3.92897 -2.78525,-0.0879 -3.17435,-0.35679 -3.17435,-2.19332 0,-7.34102 12.42009,-22.12529 23.27845,-27.70954 8.23233,-4.23373 13.63177,-5.64251 22.23027,-5.80019 12.36269,-0.22671 22.96062,3.60329 36.72312,13.27147 13.53828,9.51065 28.46133,27.19369 32.85142,38.92724 3.30589,8.83583 3.46121,13.94128 0.83411,27.42153 -2.96364,15.20716 -11.06858,31.15648 -21.40251,42.11698 -11.2546,11.93696 -29.83766,18.35379 -47.11146,16.26785 z"
       id="path4376"
       inkscape:connector-curvature="0" />
    <path
       style="fill:#ffff00;fill-opacity:1;fill-rule:evenodd;stroke:#c2b700;stroke-width:1.69297826000000007;stroke-linejoin:bevel;stroke-miterlimit:4;stroke-opacity:1;stroke-dasharray:none"
       d="m 56.427974,964.06745 c -0.241117,-0.24112 -2.50441,-0.82565 -5.029523,-1.29893 C 43.299992,961.25058 33.171407,955.75043 27.393599,949.73311 14.251791,936.04651 4.788316,910.0269 4.8662036,887.79453 c 0.058477,-16.6927 3.1243399,-23.82256 15.6243244,-36.33531 9.362823,-9.37241 17.315892,-15.01316 27.375074,-19.41594 10.617041,-4.64695 15.805366,-5.85626 25.182883,-5.86968 12.052036,-0.0173 21.509165,3.02945 33.791165,10.88615 8.73699,5.589 15.19026,15.52077 15.13007,23.28568 -0.0775,10.00423 -7.8236,14.72177 -17.88904,10.8949 -1.23836,-0.47083 -2.44204,-0.85879 -2.67481,-0.86215 -0.23279,-0.004 -3.917204,-1.86718 -8.187606,-4.14182 -12.801336,-6.81868 -20.362812,-8.65549 -29.758703,-7.22887 -5.290167,0.80321 -11.631885,4.42382 -16.522496,9.43295 -9.018284,9.23686 -12.975393,21.02253 -12.194655,36.31997 0.383095,7.50625 0.80943,9.39234 3.366086,14.89138 2.046519,4.40183 4.253484,7.52785 7.33425,10.38849 4.398233,4.08396 12.851844,8.5676 17.795892,9.43863 1.436666,0.2531 4.517298,1.21113 6.845859,2.12896 2.328547,0.91784 4.233717,1.48944 4.233717,1.27023 0,-0.21918 1.904596,0.35219 4.232447,1.26975 2.327839,0.91755 4.232446,1.46089 4.232446,1.20743 0,-0.25347 0.476146,-0.1637 1.058109,0.19948 0.581963,0.36318 1.745006,0.76729 2.584537,0.89801 2.489908,0.38769 6.565235,2.76586 7.091983,4.13854 0.54714,1.42583 -3.614628,6.25387 -5.39082,6.25387 -0.611248,0 -1.111362,0.33402 -1.111362,0.74225 0,0.79532 -7.560713,4.27511 -10.500183,4.83268 -0.975658,0.18505 -2.726218,0.55984 -3.89013,0.83284 -2.998595,0.70334 -15.671163,1.34061 -16.197267,0.8145 l 0,0 z"
       id="path4378"
       inkscape:connector-curvature="0" />
    <path
       style="fill:#ffff00;fill-opacity:1;fill-rule:evenodd;stroke:#c2b700;stroke-width:1.69297826000000007;stroke-linejoin:bevel;stroke-miterlimit:4;stroke-opacity:1;stroke-dasharray:none"
       d="m 124.13515,846.36817 c -2.79341,-0.97792 -7.17399,-3.12618 -9.73461,-4.77391 C 109.45009,838.40872 98.872656,829.78993 95.617872,826.28963 94.541887,825.13247 83.376696,815.39169 70.806332,804.64342 43.773737,781.52925 40.252946,777.64813 36.5477,766.87863 c -1.660734,-4.82699 -1.669286,-5.11511 -0.238467,-8.03389 2.029455,-4.13998 4.631039,-5.31741 10.795407,-4.8858 6.328148,0.44308 14.141032,3.90116 21.585476,9.55401 3.026191,2.2979 14.644263,11.98141 25.817924,21.51892 11.17364,9.53747 21.3078,17.97725 22.52031,18.75507 3.45307,2.21509 18.8032,17.66979 21.28418,21.42919 4.51347,6.83921 6.17458,13.75881 4.52358,18.84368 -1.49433,4.60234 -9.37106,5.57461 -18.70096,2.30836 z"
       id="path4380"
       inkscape:connector-curvature="0" />
    <path
       style="fill:#ffff00;fill-opacity:1;fill-rule:evenodd;stroke:#c2b700;stroke-width:1.69297826000000007;stroke-linejoin:bevel;stroke-miterlimit:4;stroke-opacity:1;stroke-dasharray:none"
       d="m 145.87419,811.86271 c -5.32399,-13.20802 -19.08411,-37.04159 -19.43515,-57.16455 -0.3102,-17.78116 4.10336,-37.34615 15.40109,-51.0803 12.03894,-14.63518 31.35881,-28.16019 50.24504,-26.59991 28.88551,2.38638 58.05455,25.95809 69.12875,52.74296 9.13507,22.09476 8.02782,54.97716 -9.65036,71.07405 -4.82361,4.39213 -14.65271,5.11476 -19.5542,0.80971 -5.2142,-4.5797 -1.74443,-13.79965 -1.82985,-20.73898 -0.17265,-14.02461 8.11022,-29.06687 2.66527,-41.9925 -5.85695,-13.90367 -19.24832,-30.10417 -34.3233,-29.50348 -21.9205,0.87346 -37.77334,26.53892 -46.33766,46.73603 -4.5808,10.80281 -2.71294,23.62729 -0.73889,35.19395 2.30924,13.53062 21.86178,26.98638 14.47035,38.55257 -4.50254,7.04563 -25.01486,1.86558 -25.01486,1.86558 0,0 26.67776,5.4823 28.84789,-3.97903 2.13825,-9.32229 -17.46576,-8.81608 -23.87412,-15.9161 z"
       id="path4382"
       inkscape:connector-curvature="0"
       sodipodi:nodetypes="caaaaaaaaaaaacac" />
    <path
       style="fill:#ffff00;fill-opacity:1;fill-rule:evenodd;stroke:#c2b700;stroke-width:1.69297826000000007;stroke-linejoin:bevel;stroke-miterlimit:4;stroke-opacity:1;stroke-dasharray:none"
       d="m 250.88253,840.04946 c -4.19737,-1.9091 -5.18375,-3.88485 -4.86983,-9.75438 0.50902,-9.51786 5.56168,-18.36642 22.0256,-38.57262 41.73959,-51.22718 43.51754,-53.15369 53.62575,-58.1063 11.7141,-5.73944 19.02507,-0.22022 16.23326,12.25489 -1.21815,5.44324 -6.22353,15.50104 -10.3036,20.704 -4.87391,6.21531 -39.64857,48.99977 -45.37613,55.82785 -7.48569,8.924 -16.16868,15.57987 -23.01798,17.64424 -1.19112,0.35899 -2.73705,0.87601 -3.4354,1.14893 -0.69835,0.27289 -2.8951,-0.24305 -4.88167,-1.14661 l 0,0 z"
       id="path4384"
       inkscape:connector-curvature="0" />
    <rect
       style="fill:#ad7a21;fill-opacity:1;fill-rule:evenodd;stroke:#7a7a7a;stroke-width:0.78833978999999998;stroke-linejoin:bevel;stroke-miterlimit:4;stroke-opacity:1;stroke-dasharray:none"
       id="rect4265"
       width="311.95734"
       height="74.329178"
       x="44.195915"
       y="973.84125"
       ry="34.101326"
       rx="47.863495" />
    <path
       style="fill:#a064b3;fill-opacity:1;fill-rule:evenodd;stroke:#7a7a7a;stroke-width:0.8379814;stroke-linejoin:bevel;stroke-miterlimit:4;stroke-opacity:1"
       d="m 201.47598,783.96445 c 69.81882,0.32806 146.67247,87.55552 138.73788,156.92276 -2.36646,20.68837 -22.69131,36.24867 -50.87745,36.24867 l -178.37028,0 c -28.186131,0 -48.608256,-15.54941 -50.877465,-36.24867 C 52.416019,870.89888 131.06912,783.63363 201.47598,783.96445 z"
       id="rect4281"
       inkscape:connector-curvature="0"
       sodipodi:nodetypes="aassaa" />
    <rect
       style="fill:#cca425;fill-opacity:1;fill-rule:evenodd;stroke:none"
       id="rect4265-5"
       width="273.1897"
       height="59.263264"
       x="62.584965"
       y="982.58038"
       ry="27.189268"
       rx="41.91539" />
    <path
       style="fill:#cf82e7;fill-opacity:1;fill-rule:evenodd;stroke:none;stroke-width:0.70720386999999996;stroke-linejoin:bevel;stroke-miterlimit:4;stroke-opacity:1"
       d="m 202.83551,801.01343 c 58.9227,0.27688 123.78239,73.89138 117.08608,132.43301 -1.99713,17.45968 -19.15005,30.59159 -42.93738,30.59159 l -150.53336,0 c -23.78732,0 -41.022321,-13.12271 -42.937395,-30.59159 C 77.03823,874.38065 143.41653,800.73424 202.83551,801.01343 z"
       id="rect4281-9"
       inkscape:connector-curvature="0"
       sodipodi:nodetypes="aassaa" />
  </g>
</svg>
