<?xml version="1.0" encoding="UTF-8" standalone="no"?>
<!-- Created with Inkscape (http://www.inkscape.org/) -->

<svg
   xmlns:dc="http://purl.org/dc/elements/1.1/"
   xmlns:cc="http://creativecommons.org/ns#"
   xmlns:rdf="http://www.w3.org/1999/02/22-rdf-syntax-ns#"
   xmlns:svg="http://www.w3.org/2000/svg"
   xmlns="http://www.w3.org/2000/svg"
   xmlns:sodipodi="http://sodipodi.sourceforge.net/DTD/sodipodi-0.dtd"
   xmlns:inkscape="http://www.inkscape.org/namespaces/inkscape"
   version="1.1"
   width="400"
   height="400"
   id="svg2"
   inkscape:version="0.48.3.1 r9886"
   sodipodi:docname="2_image1.svg">
  <sodipodi:namedview
     pagecolor="#ffffff"
     bordercolor="#666666"
     borderopacity="1"
     objecttolerance="10"
     gridtolerance="10"
     guidetolerance="10"
     inkscape:pageopacity="0"
     inkscape:pageshadow="2"
     inkscape:window-width="1680"
     inkscape:window-height="953"
     id="namedview5401"
     showgrid="false"
     inkscape:zoom="1.668772"
     inkscape:cx="226.28779"
     inkscape:cy="184.39296"
     inkscape:window-x="0"
     inkscape:window-y="44"
     inkscape:window-maximized="1"
     inkscape:current-layer="svg2" />
  <defs
     id="defs4" />
  <metadata
     id="metadata7">
    <rdf:RDF>
      <cc:Work
         rdf:about="">
        <dc:format>image/svg+xml</dc:format>
        <dc:type
           rdf:resource="http://purl.org/dc/dcmitype/StillImage" />
        <dc:title />
      </cc:Work>
    </rdf:RDF>
  </metadata>
  <g
     transform="translate(0,-652.36218)"
     id="layer1">
    <path
       d="m 22.988579,687.96433 c 42.584006,-7.60279 138.250561,31.8081 138.250561,31.8081 l -7.1026,29.00021 c 0,0 -100.628421,-9.79786 -138.250561,-31.8081 -8.4586395,-4.94859 -2.640652,-27.26067 7.1026,-29.00021 z"
       id="rect2998"
       style="fill:#d8ffff;fill-opacity:1;fill-rule:evenodd;stroke:#002d5a;stroke-opacity:1" />
    <path
       d="m 387.64758,821.54006 c -41.80015,4.40225 -135.43939,-43.28622 -135.43939,-43.28622 l 7.1026,-29.00022 c 0,0 98.6452,17.89538 135.43939,43.28623 8.27248,5.70866 2.4613,27.99297 -7.1026,29.00021 z"
       id="rect2998-0"
       style="fill:#d8ffff;fill-opacity:1;fill-rule:evenodd;stroke:#002d5a;stroke-opacity:1" />
    <path
       d="m 93.92857,161.42857 a 46.42857,10.714286 0 1 1 -92.8571398,0 46.42857,10.714286 0 1 1 92.8571398,0 z"
       transform="matrix(1.3046761,0.32230895,-0.11864816,0.50271501,39.972646,630.64313)"
       id="path3821"
       style="fill:#83ffff;fill-opacity:1;fill-rule:evenodd;stroke:none" />
    <path
       d="m 93.92857,161.42857 a 46.42857,10.714286 0 1 1 -92.8571398,0 46.42857,10.714286 0 1 1 92.8571398,0 z"
       transform="matrix(1.2340239,0.42321249,-0.11612216,0.41886994,285.77893,710.46248)"
       id="path3821-5"
       style="fill:#83ffff;fill-opacity:1;fill-rule:evenodd;stroke:none" />
    <rect
       width="111.41756"
       height="37.744129"
       x="323.8595"
       y="639.8465"
       transform="matrix(0.95696975,0.2901877,-0.23788478,0.97129338,0,0)"
       id="rect3841"
       style="fill:#e68226;fill-opacity:1;fill-rule:evenodd;stroke:none" />
    <path
       d="m 42.500002,226.96428 a 3.9285715,15.178572 0 1 1 -7.857143,0 3.9285715,15.178572 0 1 1 7.857143,0 z"
       transform="matrix(1.5152392,0.36072292,-0.42887896,1.4430125,192.795,391.94485)"
       id="path3843"
       style="fill:#e66126;fill-opacity:1;fill-rule:evenodd;stroke:none" />
    <path
       d="m 42.500002,226.96428 a 3.9285715,15.178572 0 1 1 -7.857143,0 3.9285715,15.178572 0 1 1 7.857143,0 z"
       transform="matrix(0.29784898,0.07090693,-0.2837212,0.90530525,206.53761,525.75141)"
       id="path3843-9"
       style="fill:#e6d526;fill-opacity:1;fill-rule:evenodd;stroke:none" />
    <path
       d="m 42.500002,226.96428 a 3.9285715,15.178572 0 1 1 -7.857143,0 3.9285715,15.178572 0 1 1 7.857143,0 z"
       transform="matrix(1.5152392,0.36072292,-0.42887896,1.4430125,299.1515,425.95062)"
       id="path3843-4"
       style="fill:#e66126;fill-opacity:1;fill-rule:evenodd;stroke:none" />
    <path
       d="m 42.500002,226.96428 a 3.9285715,15.178572 0 1 1 -7.857143,0 3.9285715,15.178572 0 1 1 7.857143,0 z"
       transform="matrix(0.29784898,0.07090693,-0.2837212,0.90530525,312.89407,559.75715)"
       id="path3843-9-1"
       style="fill:#e6d526;fill-opacity:1;fill-rule:evenodd;stroke:none" />
    <path
       d="m 42.500002,226.96428 a 3.9285715,15.178572 0 1 1 -7.857143,0 3.9285715,15.178572 0 1 1 7.857143,0 z"
       transform="matrix(6.0236032,1.4339992,-0.64103725,1.3925054,103.08975,394.62102)"
       id="path3843-6"
       style="fill:#e66126;fill-opacity:1;fill-rule:evenodd;stroke:none" />
    <path
       d="m 42.500002,226.96428 a 3.9285715,15.178572 0 1 1 -7.857143,0 3.9285715,15.178572 0 1 1 7.857143,0 z"
       transform="matrix(5.2105817,1.2404486,-0.54318182,1.1582823,109.84703,457.13832)"
       id="path3843-6-3"
       style="fill:#e6d526;fill-opacity:1;fill-rule:evenodd;stroke:none" />
    <path
       d="m 188.52967,751.44419 c -4.41604,0.10547 -9.067,1.67629 -13.125,4.71875 l -0.0313,-0.0313 -1.46875,1.28125 c -0.0444,0.0389 -0.0807,0.0857 -0.125,0.125 -0.0338,0.03 -0.0602,0.0636 -0.0937,0.0937 l -50.3125,44.625 19.66593,25.36358 52.58407,-41.64483 c 0.0181,-0.0135 0.0444,-0.0177 0.0625,-0.0313 0.55907,-0.41919 1.09019,-0.86923 1.625,-1.34375 0.16557,-0.1469 0.30807,-0.3187 0.46875,-0.46875 l 1.125,-0.9375 -0.0625,-0.0625 c 7.51568,-7.85122 8.8297,-19.25793 2.71875,-26.28125 -3.25051,-3.73581 -8.00658,-5.52625 -13.03125,-5.40625 z"
       id="path3915"
       style="fill:#d8ffff;fill-opacity:1;fill-rule:evenodd;stroke:#002d5a;stroke-opacity:1" />
    <path
       d="m 93.92857,161.42857 a 46.42857,10.714286 0 1 1 -92.8571398,0 46.42857,10.714286 0 1 1 92.8571398,0 z"
       transform="matrix(0.42167564,-0.39833743,0.23107427,0.11852388,119.99884,792.58046)"
       id="path3821-5-8"
       style="fill:#83ffff;fill-opacity:1;fill-rule:evenodd;stroke:none" />
    <path
       d="m 128.70355,793.56112 31.21276,26.06301 c 0,0 -27.36005,14.17697 -26.87581,23.0547 0.87863,16.10828 21.92088,45.96338 21.92088,45.96338 l -37.74865,14.65365 c 0,0 -33.015115,-48.78739 -24.894146,-75.9146 8.120966,-27.12721 36.384966,-33.82014 36.384966,-33.82014 z"
       id="rect3970"
       style="fill:#1f736b;fill-opacity:1;fill-rule:evenodd;stroke:none" />
    <path
       d="M 193.11274,1030.1413 C 159.94108,1004.5854 124.63797,904.86752 124.63797,904.86752 l 24.78549,-16.50614 c 0,0 59.11177,81.18204 68.47475,125.27382 2.10506,9.9133 -17.19574,22.3532 -24.78547,16.5061 z"
       id="rect2998-0-6"
       style="fill:#d8ffff;fill-opacity:1;fill-rule:evenodd;stroke:#002d5a;stroke-opacity:1" />
    <path
       d="m 93.92857,161.42857 a 46.42857,10.714286 0 1 1 -92.8571398,0 46.42857,10.714286 0 1 1 92.8571398,0 z"
       transform="matrix(0.61020153,1.2967113,-0.43647337,0.29067284,205.44796,855.35878)"
       id="path3821-5-3"
       style="fill:#83ffff;fill-opacity:1;fill-rule:evenodd;stroke:none" />
    <path
       d="m 120.35714,261.42856 a 19.107143,3.5714285 0 1 1 -38.214283,0 19.107143,3.5714285 0 1 1 38.214283,0 z"
       transform="matrix(1.1000794,-0.55916615,0.32688199,1.1370162,-62.050634,656.1204)"
       id="path4012"
       style="fill:#1fa15a;fill-opacity:1;fill-rule:evenodd;stroke:none" />
    <path
       d="m 120.35714,261.42856 a 19.107143,3.5714285 0 1 1 -38.214283,0 19.107143,3.5714285 0 1 1 38.214283,0 z"
       transform="matrix(0.60256922,-0.30514605,0.08777637,0.67869491,51.641757,749.83301)"
       id="path4012-9"
       style="fill:#1fd96b;fill-opacity:1;fill-rule:evenodd;stroke:none" />
    <path
       d="m 120.35714,261.42856 a 19.107143,3.5714285 0 1 1 -38.214283,0 19.107143,3.5714285 0 1 1 38.214283,0 z"
       transform="matrix(0.91769035,0.80949214,-0.92384485,0.74725008,292.62424,529.13013)"
       id="path4012-3"
       style="fill:#1fa15a;fill-opacity:1;fill-rule:evenodd;stroke:none" />
    <path
       d="m 120.35714,261.42856 a 19.107143,3.5714285 0 1 1 -38.214283,0 19.107143,3.5714285 0 1 1 38.214283,0 z"
       transform="matrix(0.50162102,0.44384219,-0.59089954,0.34583702,248.36222,671.69944)"
       id="path4012-9-9"
       style="fill:#1fd96b;fill-opacity:1;fill-rule:evenodd;stroke:none" />
  </g>
</svg>
