<?xml version="1.0" encoding="UTF-8" standalone="no"?>
<!-- Created with Inkscape (http://www.inkscape.org/) -->

<svg
   xmlns:dc="http://purl.org/dc/elements/1.1/"
   xmlns:cc="http://creativecommons.org/ns#"
   xmlns:rdf="http://www.w3.org/1999/02/22-rdf-syntax-ns#"
   xmlns:svg="http://www.w3.org/2000/svg"
   xmlns="http://www.w3.org/2000/svg"
   version="1.1"
   width="400"
   height="400"
   id="svg2">
  <defs
     id="defs4" />
  <metadata
     id="metadata7">
    <rdf:RDF>
      <cc:Work
         rdf:about="">
        <dc:format>image/svg+xml</dc:format>
        <dc:type
           rdf:resource="http://purl.org/dc/dcmitype/StillImage" />
        <dc:title></dc:title>
      </cc:Work>
    </rdf:RDF>
  </metadata>
  <g
     transform="translate(-945.82853,-683.77985)"
     id="layer1">
    <path
       d="m 1118.2665,1031.9177 c -1.0767,-1.0767 -1.2256,-3.0846 -0.3437,-4.6352 0.3213,-0.5651 1.5393,-1.7557 2.7066,-2.6458 1.1673,-0.8902 2.5744,-2.4843 3.1268,-3.5426 0.988,-1.8925 1.0067,-2.5011 1.1398,-36.92058 0.086,-22.20994 -0.034,-34.99645 -0.328,-34.99645 -0.7545,0 -2.4585,2.70735 -3.564,5.66247 -0.9871,2.63852 -1.0423,3.75993 -1.2977,26.32741 -0.2624,23.18415 -0.285,23.61715 -1.3773,26.35995 -3.0173,7.5766 -11.9356,12.3333 -23.1661,12.3562 -4.4568,0.01 -6.2404,-0.6929 -6.2404,-2.4558 0,-1.782 0.9808,-2.8268 4.0671,-4.3315 4.3577,-2.1247 6.2618,-3.8735 7.9401,-7.2922 l 1.4675,-2.9894 0.316,-18.88127 c 0.1891,-11.29199 0.1396,-18.87782 -0.1229,-18.8728 -0.2415,0.005 -2.3872,0.32851 -4.7684,0.71974 -5.7214,0.94005 -15.158,0.91922 -19.8636,-0.0439 -11.448,-2.34297 -19.181,-8.35509 -26.2732,-20.42632 -6.8275,-11.62067 -9.9598,-14.99981 -17.6494,-19.0406 -3.2565,-1.71119 -6.2066,-4.39998 -6.2066,-5.65669 0,-2.20222 5.0828,-3.55021 10.1584,-2.6941 7.7507,1.30733 15.066,6.69448 20.8489,15.35357 4.2538,6.36936 6.4157,8.713 10.6496,11.54484 8.4464,5.64928 19.1767,6.32314 30.4931,1.91494 l 3.6154,-1.40836 1.3568,-4.25914 c 1.656,-5.19864 4.9534,-10.48551 8.6262,-13.83109 l 2.7022,-2.46147 -4.4184,-0.59042 c -30.567,-4.08455 -51.3071,-14.82988 -62.8997,-32.58811 -1.2606,-1.93087 -2.3681,-3.73967 -2.4615,-4.01957 -0.294,-0.88214 -21.0224,0.52161 -36.7104,2.48606 -13.34835,1.67149 -29.92943,4.82564 -39.78283,7.56776 -2.50671,0.69757 -3.27466,0.76218 -3.45562,0.29069 -0.2451,-0.63882 2.59449,-1.51684 12.27202,-3.79458 15.89607,-3.74134 40.53003,-7.00117 58.88873,-7.79276 5.3679,-0.23146 7.4349,-0.48426 7.4349,-0.90932 0,-0.32381 -0.5428,-1.77435 -1.2062,-3.22343 l -1.2063,-2.63468 -3.2435,-0.30633 c -14.5995,-1.37887 -53.65064,1.23646 -70.1716,4.69954 -1.8936,0.39692 -3.18715,0.46989 -3.36038,0.18956 -0.15494,-0.25068 -0.17466,-0.56281 -0.0438,-0.69362 0.46325,-0.46326 13.69031,-2.54693 22.22789,-3.50159 13.70349,-1.53229 22.30069,-1.96917 38.75039,-1.96917 l 15.3434,0 -0.4679,-1.2304 c -0.9096,-2.39233 -2.8156,-10.62316 -3.6698,-15.84689 -1.1155,-6.82127 -1.2587,-27.95478 -0.2249,-33.19246 2.1536,-10.9121 8.547,-24.02151 15.036,-30.83087 l 1.4168,-1.48679 -1.1873,-4.09736 c -3.1688,-10.9347 -2.6804,-23.49518 1.4178,-36.4685 1.3634,-4.31583 1.9201,-4.81418 5.3501,-4.78933 9.8025,0.071 25.6022,6.42453 39.7927,16.00192 l 2.8404,1.91707 5.3374,-1.24608 c 13.4886,-3.14907 20.9922,-3.93679 37.3272,-3.91858 15.1553,0.0169 20.0368,0.45678 32.2524,2.90638 l 6.0352,1.21022 5.029,-3.16683 c 6.5867,-4.14773 16.3909,-8.97023 22.1063,-10.8737 7.4129,-2.4688 15.16,-3.52095 17.3389,-2.35483 1.0766,0.57616 3.3436,7.53487 4.6195,14.17968 1.4755,7.68487 0.944,21.29446 -1.0483,26.8432 -0.1139,0.31716 1.2154,2.20021 2.9542,4.18455 7.8678,8.97945 12.9544,19.39343 15.4442,31.61949 0.6954,3.41434 0.8561,6.55772 0.8435,16.48554 -0.01,6.78185 -0.2914,14.63283 -0.6321,17.55834 -0.5952,5.11236 -2.2322,14.4312 -2.7906,15.88652 -0.2368,0.61701 1.8655,0.70971 16.0965,0.70971 17.442,0 25.918,0.41963 39.7758,1.96917 8.5376,0.95466 21.7647,3.03833 22.228,3.50159 0.1308,0.13081 0.111,0.44294 -0.044,0.69362 -0.1733,0.28033 -1.4668,0.20736 -3.3604,-0.18956 -16.8144,-3.52461 -52.5092,-5.8989 -70.6362,-4.69847 l -4.6701,0.30927 -0.9718,2.87778 c -0.5345,1.58277 -0.8768,3.03171 -0.7605,3.21983 0.1163,0.18813 3.7375,0.48194 8.0472,0.65292 18.3862,0.7294 43.3264,4.00193 59.4874,7.80565 9.5775,2.25419 12.5161,3.15857 12.2781,3.7787 -0.1686,0.43957 -1.5427,0.24248 -5.3798,-0.77169 -18.9944,-5.02039 -42.6805,-8.35209 -69.6161,-9.79221 l -5.7745,-0.30874 -1.1249,2.33103 c -2.0669,4.28313 -6.3194,10.18281 -9.9738,13.83723 -10.2704,10.27037 -25.6221,16.79437 -47.6397,20.24539 -4.2034,0.65884 -8.2247,1.19845 -8.9362,1.19913 -1.197,8.2e-4 -1.0163,0.28021 2.415,3.72939 4.0342,4.05521 6.4303,8.05647 8.2822,13.83019 1.0471,3.26497 1.0912,4.20845 1.4483,31.02775 0.3556,26.6952 0.4047,27.75695 1.4077,30.42745 1.498,3.9884 4.1303,7.0751 7.6198,8.935 3.1599,1.6841 4.4137,3.0288 4.4137,4.7334 0,1.8326 -1.7225,2.5669 -5.9999,2.5577 -10.9835,-0.024 -19.9383,-4.8503 -22.9245,-12.3562 -1.0874,-2.7332 -1.1151,-3.2423 -1.3969,-25.63845 -0.2519,-20.03254 -0.3925,-23.17611 -1.1393,-25.49566 -0.9769,-3.0338 -2.9972,-6.7347 -3.6763,-6.7347 -0.6888,0 -0.6131,64.17591 0.08,67.44361 0.773,3.6467 1.9055,5.608 4.7012,8.1413 2.8656,2.5966 3.2278,4.338 1.2826,6.1655 -1.8218,1.7115 -4.651,1.8 -9.1772,0.2871 -6.9507,-2.3233 -11.0085,-5.415 -13.7554,-10.4803 l -1.6309,-3.0076 -0.2405,-36.07875 c -0.1323,-19.84329 -0.4157,-36.34933 -0.6298,-36.68006 -0.4955,-0.76575 -2.8461,-0.78144 -3.6034,-0.024 -0.4384,0.43831 -0.5774,8.93801 -0.5774,35.31433 0,32.43488 -0.059,34.92638 -0.889,37.59368 -1.0847,3.485 -3.2468,6.7193 -5.9681,8.9276 -5.7039,4.6284 -15.6381,7.1766 -18.1575,4.6572 z m -35.9072,-78.02223 c 0.8751,-1.39737 -0.9109,-2.87065 -3.2693,-2.69694 -2.2513,0.16583 -2.8175,1.30253 -1.4187,2.84816 1.0507,1.16112 3.9243,1.06842 4.688,-0.15122 z m 11.064,0 c 0.6745,-1.07661 -0.8267,-2.7942 -2.4423,-2.7942 -2.5328,0 -3.881,1.83351 -2.4215,3.29303 0.8472,0.84723 4.2382,0.49944 4.8638,-0.49883 z m 8.013,-2.19289 c 0.01,-0.46301 0.1371,-1.3289 0.2967,-1.9242 0.2422,-0.90388 0.098,-1.08236 -0.8725,-1.08236 -0.6394,0 -1.4222,0.25977 -1.7398,0.57726 -1.2145,1.21455 -0.3072,3.27114 1.4432,3.27114 0.5015,0 0.8686,-0.35431 0.8724,-0.84184 z m -29.1747,-0.69995 c 0.4037,-0.64498 0.2678,-1.08178 -0.6366,-2.04447 -2.1186,-2.2551 -5.6662,-1.27858 -4.3422,1.19525 1.0507,1.9633 3.9697,2.46117 4.9788,0.84922 z m -8.3156,-6.44144 c 0.5308,-0.6397 0.5182,-0.97892 -0.076,-2.03751 -1.9151,-3.41192 -5.8373,-2.57316 -4.0579,0.86779 1.0395,2.01023 2.9804,2.55943 4.1338,1.16972 z m -6.514,-8.43029 c 0.3817,-1.20271 -1.0988,-3.45886 -2.4428,-3.72264 -1.077,-0.21136 -2.1817,1.17894 -1.7988,2.26379 0.8609,2.43941 3.6283,3.39122 4.2416,1.45885 z m -6.2198,-7.36088 c 0.7112,-1.85341 -2.1685,-3.90003 -3.5474,-2.52114 -0.6689,0.66886 -0.6624,0.86382 0.065,1.97365 0.8902,1.35861 3.0416,1.69682 3.4827,0.54749 z m -6.237,-4.85422 c 0.4156,-1.08286 -0.7804,-2.2274 -2.1553,-2.06266 -1.4943,0.17904 -1.811,0.98894 -0.787,2.01295 0.9791,0.97903 2.5754,1.006 2.9423,0.0497 z m 130.0553,-7.45372 c 20.1868,-1.90724 32.8885,-6.88138 40.2936,-15.77937 4.7337,-5.68814 7.6877,-12.76072 9.0191,-21.593 0.9124,-6.05353 0.9097,-14.90027 -0.01,-18.78309 -1.5526,-6.58499 -5.3907,-13.01702 -11.2961,-18.93027 -8.9834,-8.99554 -19.2947,-10.92533 -47.1509,-8.82437 -13.0546,0.9846 -28.8791,0.97074 -43.054,-0.0377 -14.6264,-1.04057 -26.6351,-0.7906 -32.1343,0.66892 -5.6409,1.4971 -10.083,4.05466 -14.3043,8.2358 -5.8588,5.80307 -9.7285,12.2788 -11.2867,18.88764 -0.9084,3.85233 -0.9146,11.89942 -0.014,17.43446 3.1524,19.36734 15.4126,30.90345 38.2757,36.01509 6.9354,1.55061 15.2292,2.63178 24.3723,3.17721 8.9409,0.53335 39.9195,0.22458 47.285,-0.47131 z m -33.9141,-8.63952 c -3.1695,-1.52384 -5.5321,-4.12641 -5.5321,-6.09383 0,-1.68191 1.1224,-1.38319 2.4449,0.65074 1.7583,2.70397 3.9726,3.98445 6.8865,3.98232 3.0364,-0.002 5.0959,-1.17272 6.7927,-3.86063 0.685,-1.0852 1.5045,-1.88786 1.821,-1.78369 1.1981,0.39437 0.8086,2.11408 -0.942,4.15932 -3.167,3.69992 -7.5575,4.82739 -11.471,2.94577 z m 1.7938,-12.84509 c -0.7184,-0.28906 -2.0343,-2.68638 -2.0343,-3.70617 0,-0.38971 0.5604,-1.37458 1.2454,-2.18861 0.9304,-1.1058 1.6495,-1.48006 2.8435,-1.48006 1.194,0 1.9131,0.37426 2.8436,1.48006 0.685,0.81403 1.2454,1.7989 1.2454,2.18861 0,1.12646 -1.3343,3.40235 -2.1863,3.72931 -0.903,0.34652 -3.07,0.33384 -3.9573,-0.0232 z m -44.6393,-10.38141 c -4.2091,-2.85423 -6.9562,-9.93397 -6.298,-16.231 0.9214,-8.81537 7.0488,-15.26104 12.8541,-13.52174 5.8757,1.7604 9.8919,10.55368 8.5871,18.8009 -0.6339,4.00624 -1.7942,6.59037 -4.113,9.16006 -3.416,3.78543 -7.1869,4.39798 -11.0302,1.79178 z m 2.41,-19.22879 c 1.7126,-2.44511 0.2242,-5.66557 -2.6184,-5.66557 -0.8019,0 -1.8708,0.42761 -2.4053,0.9621 -2.1718,2.17172 -0.5384,5.77261 2.6184,5.77261 1.1664,0 1.878,-0.31631 2.4053,-1.06914 z m 84.4013,19.42054 c -8.1218,-5.15067 -8.9502,-20.847 -1.4576,-27.61616 5.1077,-4.61444 11.0495,-2.86064 14.5757,4.30218 2.1116,4.28908 2.4858,10.37653 0.949,15.43601 -2.3479,7.73001 -8.6953,11.2847 -14.0671,7.87797 z m 2.6312,-19.34841 c 2.3995,-1.88744 1.1775,-5.25664 -1.9066,-5.25664 -1.7533,0 -3.0795,1.3777 -3.0795,3.19895 0,1.07004 2.0315,3.0547 3.1268,3.0547 0.3255,0 1.1623,-0.44866 1.8593,-0.99701 z"
       id="path2996"
       style="fill:#000000" />
  </g>
</svg>
