<?xml version="1.0" encoding="UTF-8" standalone="no"?>
<!-- Created with Inkscape (http://www.inkscape.org/) -->

<svg
   xmlns:dc="http://purl.org/dc/elements/1.1/"
   xmlns:cc="http://creativecommons.org/ns#"
   xmlns:rdf="http://www.w3.org/1999/02/22-rdf-syntax-ns#"
   xmlns:svg="http://www.w3.org/2000/svg"
   xmlns="http://www.w3.org/2000/svg"
   version="1.1"
   width="400"
   height="400"
   id="svg2">
  <defs
     id="defs4" />
  <metadata
     id="metadata7">
    <rdf:RDF>
      <cc:Work
         rdf:about="">
        <dc:format>image/svg+xml</dc:format>
        <dc:type
           rdf:resource="http://purl.org/dc/dcmitype/StillImage" />
        <dc:title></dc:title>
      </cc:Work>
    </rdf:RDF>
  </metadata>
  <g
     transform="matrix(-1,0,0,-1,1345.5443,1099.1672)"
     id="layer1">
    <path
       d="m 1097.9869,756.56182 c 1.4743,0.38076 2.6222,2.03487 2.6499,3.8185 0.01,0.64998 -0.4344,2.29416 -0.988,3.65373 -0.5535,1.35966 -0.9562,3.44747 -0.8946,4.63968 0.1099,2.13204 0.4029,2.66582 17.7672,32.38448 11.2046,19.17668 17.8013,30.13083 18.0546,29.98153 0.6499,-0.38315 0.743,-3.58076 0.1947,-6.68788 -0.4896,-2.77426 -1.0115,-3.76834 -12.2518,-23.33906 -11.5473,-20.10551 -11.7478,-20.49 -12.1996,-23.40751 -1.2483,-8.0592 4.0189,-16.68583 13.6819,-22.40866 3.8343,-2.27188 5.7277,-2.57211 6.623,-1.05344 0.9049,1.53513 0.5906,2.93325 -1.304,5.79679 -2.6751,4.04328 -3.4273,6.51675 -3.137,10.31411 l 0.2539,3.32048 9.3161,16.42597 c 5.5714,9.82364 9.4663,16.33341 9.6899,16.19578 0.2055,-0.12695 1.8897,-1.49527 3.7423,-3.04153 4.4514,-3.71528 12.5913,-8.48945 17.134,-10.04937 11.0519,-3.79517 20.7666,-2.54296 33.0063,4.25437 11.7829,6.5436 16.1973,7.86395 24.8736,7.43998 3.6743,-0.1796 7.5811,0.63856 8.2193,1.72117 1.1184,1.89713 -2.5757,5.63953 -7.3829,7.47953 -7.3409,2.80976 -16.3784,1.88381 -25.7574,-2.63897 -6.899,-3.32678 -9.9516,-4.24788 -15.037,-4.53733 -10.1451,-0.57737 -19.731,4.29122 -27.2411,13.83544 l -2.3993,3.04923 0.994,4.3581 c 1.2134,5.31938 1.0577,11.54831 -0.4074,16.29553 l -1.0778,3.4927 4.1061,-1.73514 c 28.4065,-12.00393 51.73,-13.27953 70.7347,-3.86848 2.0665,1.02321 3.9391,2.01901 4.1617,2.2127 0.7012,0.61063 17.8451,-11.125 30.3621,-20.78402 10.6503,-8.21852 23.3325,-19.35595 30.4283,-26.72196 1.8052,-1.87389 2.4339,-2.31953 2.8293,-2.00526 0.5355,0.42585 -1.4648,2.62424 -8.6449,9.5009 -11.794,11.2954 -31.3598,26.6133 -46.7731,36.61819 -4.5067,2.92534 -6.1589,4.19278 -5.9431,4.55896 0.1645,0.27895 1.3687,1.25288 2.676,2.16432 l 2.3772,1.65709 2.9497,-1.38323 c 13.2771,-6.22611 45.59,-28.31017 58.0636,-39.6832 1.4297,-1.30354 2.507,-2.0233 2.7986,-1.86978 0.2607,0.13727 0.4362,0.39615 0.3899,0.57529 -0.1638,0.63433 -10.5003,9.14633 -17.3703,14.30431 -11.0269,8.27895 -18.2112,13.02116 -32.3819,21.37469 l -13.2178,7.79173 1.0279,0.82233 c 1.9985,1.59898 7.8202,7.72162 11.2088,11.78788 4.425,5.30978 15.2804,23.44277 17.0496,28.47982 3.6862,10.494 4.8358,25.03397 2.7037,34.19523 l -0.4655,2.0003 3.1036,2.92678 c 8.2827,7.81064 14.2404,18.87903 17.2981,32.1362 1.0172,4.41029 0.7907,5.12231 -2.1768,6.84273 -8.4805,4.91677 -25.3178,7.46689 -42.406,6.42259 l -3.4204,-0.20906 -3.9652,3.7839 c -10.0207,9.56262 -16.0848,14.05171 -30.166,22.33132 -13.0643,7.6816 -17.4929,9.7816 -29.2601,13.8748 l -5.8137,2.0222 -2.7241,5.2819 c -3.5679,6.918 -9.5648,16.0512 -13.5218,20.5934 -5.1322,5.8912 -11.2718,10.7318 -13.741,10.8337 -1.22,0.05 -6.7067,-4.7931 -11.1803,-9.8694 -5.1736,-5.8709 -11.627,-17.865 -12.7285,-23.6567 -0.063,-0.3311 -2.1643,-1.2782 -4.6699,-2.1046 -11.3378,-3.74 -21.0082,-10.1282 -29.3617,-19.3961 -2.3329,-2.58818 -4.0676,-5.21448 -9.0984,-13.77331 -3.4353,-5.84738 -7.1798,-12.7536 -8.372,-15.44683 -2.0834,-4.70636 -5.4055,-13.56549 -5.6635,-15.10276 -0.1093,-0.65178 -1.9675,0.33595 -14.2269,7.56278 -15.0256,8.85744 -22.5405,12.80025 -35.2653,18.50269 -7.8396,3.51318 -20.29242,8.4352 -20.92679,8.27139 -0.17911,-0.0463 -0.32056,-0.32521 -0.31433,-0.61987 0.007,-0.3295 1.15829,-0.92351 2.99111,-1.54319 16.27481,-5.50241 48.23031,-21.58368 63.23641,-31.82311 l 3.866,-2.638 -0.6242,-2.9726 c -0.3433,-1.63493 -0.7843,-3.05696 -0.98,-3.15996 -0.1957,-0.10301 -3.4644,1.48281 -7.2639,3.52408 -16.2094,8.70858 -39.3563,18.55462 -55.21,23.48478 -9.39537,2.92178 -12.38613,3.63497 -12.49602,2.97989 -0.078,-0.46429 1.20584,-0.9923 5.02637,-2.0672 18.91245,-5.32091 41.00895,-14.47912 64.94435,-26.91702 l 5.1313,-2.66645 -0.2147,-2.57934 c -0.3946,-4.73937 0.2728,-11.98124 1.5652,-16.98517 3.632,-14.06307 13.5438,-27.47919 30.7587,-41.63314 3.2865,-2.70215 6.4766,-5.20911 7.0892,-5.57101 1.0308,-0.60857 0.7332,-0.75749 -3.9743,-1.98634 -5.5346,-1.44475 -9.6307,-3.67489 -14.1581,-7.70829 -2.56,-2.2809 -3.0771,-3.07128 -17.0042,-25.99373 -13.8628,-22.81631 -14.4443,-23.70604 -16.6644,-25.49722 -3.3159,-2.67514 -7.151,-3.99747 -11.1016,-3.82766 -3.5774,0.15389 -5.3403,-0.36781 -6.206,-1.83626 -0.9306,-1.57872 0.1804,-3.08601 3.8699,-5.25025 9.474,-5.55699 19.6391,-5.94677 26.0233,-0.99718 2.3247,1.80234 2.6071,2.22684 14.2232,21.37716 10.3899,17.12934 12.1074,19.76601 13.9287,21.38497 2.3822,2.11741 6.002,4.27964 6.587,3.93478 0.5934,-0.34979 -32.0618,-55.59643 -34.3183,-58.05946 -2.5178,-2.74895 -4.4894,-3.86342 -8.1842,-4.62604 -3.7873,-0.78166 -4.9836,-2.09787 -4.2359,-4.66001 0.7002,-2.39954 3.0925,-3.91251 7.76,-4.90772 7.1676,-1.52829 12.2332,-0.92555 17.1719,2.04308 l 2.9323,1.76272 18.5287,30.95833 c 10.1909,17.02705 18.8172,31.10245 19.1696,31.27864 0.8157,0.40804 2.8486,-0.77214 3.1163,-1.80922 0.1551,-0.60021 -4.0415,-7.99297 -17.436,-30.71515 -16.4711,-27.94141 -17.6856,-30.1177 -18.3251,-32.83697 -0.8353,-3.55303 -0.6152,-7.43722 0.6077,-10.72152 2.5633,-6.88376 9.8272,-14.12375 13.2769,-13.23279 z m 70.5541,48.97866 c -0.044,1.64818 2.2425,2.01038 4.186,0.66309 1.8552,-1.28612 1.7657,-2.55287 -0.2242,-3.17403 -1.4948,-0.46669 -3.9232,1.07245 -3.9618,2.51094 z m -9.5312,5.61855 c -0.034,1.26999 2.1311,1.98728 3.5229,1.16685 2.1819,-1.28622 2.4123,-3.55036 0.4138,-4.06652 -1.1601,-0.29962 -3.9047,1.72201 -3.9367,2.89967 z m -5.7893,5.95828 c 0.2265,0.40394 0.5568,1.21442 0.7216,1.80829 0.2503,0.90166 0.4652,0.98218 1.3012,0.48934 0.5509,-0.3247 1.0933,-0.94601 1.2057,-1.3808 0.4294,-1.66304 -1.3965,-2.97396 -2.9044,-2.08507 -0.4321,0.25467 -0.5684,0.74632 -0.3241,1.16824 z m 25.4884,-14.2126 c -0.02,0.76064 0.3186,1.06791 1.5866,1.43796 2.9703,0.86681 5.5305,-1.77598 3.1337,-3.23473 -1.9022,-1.15774 -4.6696,-0.1043 -4.7203,1.79677 z m 10.4346,1.32621 c -0.1324,0.82063 0.051,1.10645 1.1002,1.71664 3.3824,1.96671 6.3353,-0.74763 3.055,-2.80826 -1.9163,-1.20386 -3.8672,-0.69134 -4.1551,1.09157 z m 9.8927,3.95441 c 0.2819,1.22993 2.703,2.42168 3.9948,1.96641 1.0351,-0.36485 1.2808,-2.12353 0.4,-2.86364 -1.9804,-1.66428 -4.8478,-1.07888 -4.3948,0.89723 z m 9.0961,3.18256 c 0.3286,1.95781 3.8486,2.25852 4.3363,0.37042 0.2365,-0.91588 0.1319,-1.08053 -1.0583,-1.66722 -1.4568,-0.71832 -3.4819,0.0829 -3.2782,1.29696 z m 7.838,1.01444 c 0.1919,1.14389 1.8035,1.52251 2.9042,0.68239 1.1964,-0.91307 1.0579,-1.7716 -0.3442,-2.13374 -1.3407,-0.34618 -2.7295,0.44122 -2.5599,1.45136 z m -108.2524,72.46612 c -16.4217,11.89433 -24.8377,22.62957 -26.6983,34.05532 -1.1893,7.304 -0.1425,14.89686 3.1958,23.18165 2.2881,5.67822 6.783,13.29797 9.5471,16.17583 4.6815,4.88427 11.2542,8.47614 19.3444,10.57129 12.307,3.18734 22.1697,-0.38654 45.0999,-16.34244 10.746,-7.47762 24.3852,-15.50172 37.1085,-21.83132 13.1285,-6.53121 23.3466,-12.84484 27.3428,-16.89477 4.0991,-4.15428 6.627,-8.61331 8.1402,-14.35888 2.1002,-7.97435 2.1453,-15.51807 0.1315,-22.00262 -1.1737,-3.77994 -5.2549,-10.71535 -8.8415,-15.02623 -12.5509,-15.08336 -28.9709,-18.79526 -51.2623,-11.58835 -6.7621,2.18617 -14.4559,5.46656 -22.6093,9.63976 -7.9731,4.08094 -34.5032,20.07856 -40.4949,24.41841 z m 33.603,-9.77973 c 3.5042,-0.29682 6.8612,0.74541 7.8603,2.44027 0.8541,1.4489 -0.2645,1.76155 -2.4367,0.68099 -2.8878,-1.43646 -5.4456,-1.41508 -7.9547,0.0665 -2.6148,1.54368 -3.7944,3.59807 -3.8912,6.77527 -0.039,1.28272 -0.3373,2.39034 -0.6629,2.46133 -1.2324,0.26869 -1.7702,-1.41057 -1.3007,-4.06146 0.8494,-4.79562 4.059,-7.99648 8.3859,-8.3629 z m 4.9777,11.97648 c 0.7657,-0.11581 3.1167,1.28115 3.6346,2.15966 0.1979,0.33572 0.2153,1.46873 0.039,2.51785 -0.24,1.42508 -0.6694,2.11266 -1.698,2.719 -1.0286,0.60634 -1.8381,0.64911 -3.2013,0.16903 -1.0035,-0.35339 -1.9864,-0.91724 -2.1843,-1.25296 -0.572,-0.9704 -0.5783,-3.60858 -0.01,-4.32291 0.602,-0.75708 2.4752,-1.8466 3.4209,-1.98962 z m 43.727,-13.72566 c 5.0754,0.32133 11.0372,5.02522 13.668,10.78412 3.6828,8.06201 1.6776,16.72634 -4.2067,18.17606 -5.9557,1.4673 -13.8809,-4.06826 -16.945,-11.83553 -1.4884,-3.77313 -1.8011,-6.58849 -1.1085,-9.97972 1.0204,-4.99572 3.9579,-7.43836 8.5922,-7.14493 z m 7.6887,17.78872 c -0.2337,2.97606 2.684,4.99452 5.1327,3.55099 0.6909,-0.40723 1.3945,-1.31841 1.5835,-2.05028 0.7681,-2.97375 -2.4676,-5.2463 -5.1871,-3.6432 -1.0048,0.59232 -1.4572,1.22618 -1.5291,2.14249 z m -82.5707,26.13084 c 9.6123,0.31267 18.2969,13.41377 15.2798,23.05006 -2.0568,6.56897 -8.066,8.07552 -14.7412,3.69571 -3.9971,-2.62256 -7.4108,-7.67664 -8.6562,-12.81561 -1.9029,-7.85143 1.76,-14.13701 8.1176,-13.93016 z m 7.5589,18.00409 c -1.1086,2.84448 1.6551,5.12636 4.3119,3.56018 1.5104,-0.89036 1.9533,-2.75067 1.0284,-4.31961 -0.5434,-0.9218 -3.3013,-1.59986 -4.2449,-1.04365 -0.2804,0.1653 -0.7734,0.97675 -1.0954,1.80308 z"
       id="path2996"
       style="fill:#a92100;fill-opacity:1" />
  </g>
</svg>
