<?xml version="1.0" encoding="UTF-8" standalone="no"?>
<!-- Created with Inkscape (http://www.inkscape.org/) -->

<svg
   xmlns:dc="http://purl.org/dc/elements/1.1/"
   xmlns:cc="http://creativecommons.org/ns#"
   xmlns:rdf="http://www.w3.org/1999/02/22-rdf-syntax-ns#"
   xmlns:svg="http://www.w3.org/2000/svg"
   xmlns="http://www.w3.org/2000/svg"
   version="1.1"
   width="400"
   height="400"
   id="svg2">
  <defs
     id="defs4" />
  <metadata
     id="metadata7">
    <rdf:RDF>
      <cc:Work
         rdf:about="">
        <dc:format>image/svg+xml</dc:format>
        <dc:type
           rdf:resource="http://purl.org/dc/dcmitype/StillImage" />
        <dc:title></dc:title>
      </cc:Work>
    </rdf:RDF>
  </metadata>
  <g
     transform="matrix(-1,0,0,-1,1345.5443,1099.1672)"
     id="layer1">
    <path
       d="m 1232.7799,775.12519 c 0.607,1.39647 0.01,3.31912 -1.3796,4.43842 -0.5062,0.40781 -2.0758,1.06916 -3.4881,1.46929 -1.4124,0.40028 -3.306,1.36746 -4.2079,2.14958 -1.6131,1.39847 -1.8536,1.95787 -14.5964,33.93188 -8.2228,20.63189 -12.7989,32.5721 -12.5254,32.67991 0.7019,0.27656 3.2799,-1.61753 5.3918,-3.96155 1.8857,-2.09295 2.3482,-3.11601 10.8596,-24.0185 8.7441,-21.47355 8.9238,-21.86818 10.9456,-24.01946 5.585,-5.94284 15.6262,-7.09867 26.0831,-3.00262 4.1502,1.62468 5.5518,2.93251 4.9056,4.5727 -0.6534,1.65789 -1.9489,2.27039 -5.372,2.53881 -4.8332,0.37906 -7.2459,1.30802 -10.0607,3.87337 l -2.4613,2.24323 -7.2164,17.45069 c -4.3158,10.43637 -7.0509,17.51214 -6.8048,17.60372 0.2265,0.0839 2.3414,0.56961 4.7002,1.07859 5.6677,1.22302 14.4396,4.70213 18.4644,7.3233 9.7919,6.377 14.7822,14.80553 16.955,28.63641 2.0917,13.31466 3.767,17.60692 9.4397,24.18553 2.4024,2.78593 4.1613,6.36905 3.7006,7.53827 -0.8074,2.04893 -6.0305,1.43958 -10.4388,-1.21777 -6.7318,-4.05796 -11.5626,-11.75191 -13.7682,-21.92818 -1.6224,-7.48541 -2.7746,-10.45851 -5.6754,-14.6454 -5.7872,-8.35259 -15.5232,-12.91348 -27.6678,-12.96112 l -3.88,-0.0152 -2.8239,3.46509 c -3.4466,4.22952 -8.4526,7.93942 -13.0963,9.70544 l -3.4165,1.29943 3.8943,2.16919 c 26.9411,15.00672 42.2975,32.60765 46.5724,53.37955 0.4649,2.25859 0.8321,4.34747 0.8164,4.64212 -0.05,0.92847 19.7498,7.22202 35.0657,11.14594 13.0317,3.33875 29.6146,6.48323 39.7872,7.54453 2.5879,0.27003 3.3261,0.49143 3.3216,0.99649 -0.01,0.68416 -2.97,0.46 -12.8087,-0.96885 -16.1609,-2.34712 -40.2747,-8.34569 -57.6453,-14.33993 -5.079,-1.75266 -7.0947,-2.27523 -7.2506,-1.8798 -0.1187,0.30131 -0.1455,1.84983 -0.06,3.44118 l 0.1564,2.89353 2.9054,1.47414 c 13.0774,6.63536 50.3682,18.5192 67.0084,21.35428 1.9073,0.32496 3.1375,0.73133 3.1959,1.05566 0.052,0.28997 -0.044,0.5876 -0.2136,0.66133 -0.6008,0.26118 -13.6708,-2.64963 -21.9639,-4.89152 -13.311,-3.59844 -21.4698,-6.34392 -36.774,-12.37471 l -14.2751,-5.62529 -0.016,1.31626 c -0.031,2.55926 -1.2751,10.91572 -2.3955,16.0889 -1.463,6.7553 -9.0779,26.46974 -11.96,30.96367 -6.0042,9.36278 -16.7587,19.21538 -25.2923,23.17158 l -1.8633,0.8638 -0.3975,4.2474 c -1.0608,11.3351 -6.1202,22.8419 -14.6893,33.4093 -2.8508,3.5155 -3.5514,3.7751 -6.7335,2.4944 -9.0939,-3.6599 -21.4641,-15.3635 -31.1552,-29.4766 l -1.9398,-2.825 -5.4226,-0.7975 c -13.7039,-2.0154 -20.9738,-4.0336 -36.1647,-10.0393 -14.0938,-5.572 -18.4741,-7.771 -28.9411,-14.5285 l -5.1712,-3.33865 -5.8399,1.10255 c -7.6487,1.4441 -18.5383,2.3364 -24.5536,2.0119 -7.8018,-0.4208 -15.3953,-2.28226 -16.9949,-4.16602 -0.7901,-0.93096 -0.3483,-8.23604 0.9008,-14.88599 1.4447,-7.69068 6.9288,-20.1578 10.8166,-24.58972 0.2222,-0.25339 -0.3241,-2.49258 -1.2143,-4.97622 -4.0279,-11.23874 -4.9423,-22.79251 -2.7764,-35.08005 0.6049,-3.43151 1.6078,-6.41492 5.2593,-15.6469 2.4957,-6.30591 5.6358,-13.50706 7.0254,-16.104 2.428,-4.53815 7.3676,-12.60794 8.4206,-13.7572 0.4466,-0.4872 -1.4754,-1.34426 -14.7154,-6.56164 -16.2275,-6.39465 -23.9595,-9.89261 -36.2843,-16.41481 -7.59306,-4.01826 -19.13525,-10.80626 -19.39645,-11.40712 -0.0737,-0.16968 0.0591,-0.4528 0.29524,-0.62919 0.26405,-0.19722 1.44069,0.34484 3.05691,1.40836 14.3514,9.44373 46.6903,24.73934 63.9952,30.26828 l 4.4583,1.42439 1.9592,-2.32109 c 1.0775,-1.27659 1.9272,-2.4992 1.888,-2.71684 -0.039,-0.21765 -3.3006,-1.8186 -7.2475,-3.55774 -16.8385,-7.41942 -38.8424,-19.60777 -52.4835,-29.07165 -8.08419,-5.60856 -10.4866,-7.52734 -10.03781,-8.01703 0.318,-0.34717 1.52417,0.34 4.72227,2.69032 15.83124,11.63465 36.64654,23.41819 61.17864,34.63334 l 5.2592,2.40432 1.9012,-1.75631 c 3.4932,-3.22718 9.6126,-7.15698 14.3524,-9.21709 13.3206,-5.78988 29.9952,-6.23136 51.7449,-1.36983 4.1523,0.92811 8.0914,1.90032 8.7536,2.16056 1.114,0.43812 1.0483,0.11189 -0.8795,-4.35511 -2.2666,-5.25185 -3.0289,-9.85299 -2.6351,-15.90366 0.2229,-3.42146 0.5278,-4.31541 10.0281,-29.3982 9.4563,-24.96679 9.7998,-25.97263 9.8458,-28.82483 0.069,-4.25992 -1.2488,-8.09673 -3.8135,-11.10649 -2.3225,-2.72536 -2.9959,-4.43604 -2.371,-6.022 0.6719,-1.70497 2.5437,-1.75661 6.5199,-0.17985 10.2099,4.04911 16.7717,11.82238 16.7981,19.90048 0.01,2.94153 -0.1512,3.42533 -8.1,24.36539 -7.1101,18.72995 -8.1318,21.70618 -8.2874,24.13804 -0.2033,3.18072 0.3194,7.3646 0.9512,7.61356 0.6409,0.25255 24.0989,-59.48249 24.6521,-62.77678 0.6178,-3.67619 0.2832,-5.91612 -1.3891,-9.29795 -1.7141,-3.46647 -1.4126,-5.21936 1.0672,-6.20643 2.3223,-0.92447 4.987,0.0304 8.6434,3.09746 5.6149,4.70983 8.2567,9.07388 8.9553,14.79363 l 0.4147,3.39611 -13.0037,33.65466 c -7.1519,18.51014 -12.9397,33.97076 -12.8618,34.35697 0.1803,0.89408 2.3614,1.77044 3.3437,1.34335 0.5686,-0.24704 3.8141,-8.10394 13.4843,-32.64366 11.8914,-30.17636 12.8597,-32.47281 14.6098,-34.65009 2.2869,-2.84463 5.4842,-5.06106 8.8256,-6.11787 7.0037,-2.21493 17.1804,-0.94358 18.6006,2.32401 z m 4.8021,85.7539 c -1.3263,0.97943 -0.2049,3.00473 2.053,3.7078 2.1553,0.67109 3.0988,-0.17889 2.3641,-2.12971 -0.5519,-1.4655 -3.2594,-2.43277 -4.4171,-1.57809 z m -10.2936,-4.05632 c -1.022,0.75462 -0.2553,2.9027 1.2478,3.49504 2.3565,0.92857 4.2831,-0.28292 3.4603,-2.17592 -0.4776,-1.09886 -3.76,-2.01851 -4.7081,-1.31912 z m -8.259,-0.89757 c -0.179,0.42709 -0.6147,1.18615 -0.9815,1.68147 -0.5567,0.7521 -0.488,0.97105 0.4149,1.32682 0.595,0.23449 1.4185,0.27977 1.8304,0.10085 1.5751,-0.68477 1.4851,-2.93073 -0.1435,-3.57247 -0.4666,-0.18392 -0.938,0.0112 -1.1203,0.46333 z m 26.8867,11.34741 c -0.6119,0.45225 -0.6458,0.90823 -0.1573,2.13548 1.1443,2.87482 4.8029,3.26691 4.4781,0.47996 -0.2578,-2.21185 -2.791,-3.7452 -4.3208,-2.61544 z m 5.3749,9.04156 c -0.7283,0.40056 -0.8408,0.721 -0.6763,1.92352 0.5309,3.87644 4.4875,4.53407 4.0935,0.68033 -0.2301,-2.25134 -1.8345,-3.47388 -3.4171,-2.60381 z m 2.9697,10.2315 c -0.7961,0.97899 -0.2458,3.62082 0.9079,4.35901 0.9245,0.59147 2.462,-0.29695 2.5035,-1.44667 0.093,-2.58517 -2.1323,-4.48533 -3.4114,-2.91234 z m 3.088,9.12863 c -1.3411,1.46367 0.5877,4.4235 2.3762,3.64621 0.8675,-0.37711 0.9329,-0.56088 0.663,-1.86009 -0.3301,-1.59037 -2.2077,-2.69376 -3.0394,-1.78618 z m 4.0231,6.80284 c -0.7837,0.85511 -0.09,2.35849 1.249,2.70924 1.4559,0.38131 2.0474,-0.25612 1.4702,-1.58421 -0.552,-1.26987 -2.0273,-1.88017 -2.7192,-1.12494 z m -123.7321,-40.74662 c -19.4805,-5.6266 -33.1214,-5.65553 -43.2731,-0.092 -6.4895,3.55662 -11.8308,9.05367 -16.3076,16.78285 -3.0682,5.29749 -6.3092,13.52921 -6.877,17.47887 -0.9697,6.69569 0.243,14.08698 3.5692,21.75359 5.0599,11.66271 13.9457,17.23843 40.6326,25.49657 12.5065,3.87006 27.224,9.68456 40.0422,15.81969 13.2265,6.3305 24.4907,10.50062 30.1421,11.15889 5.7969,0.67518 10.8674,-0.0757 16.3276,-2.4181 7.5784,-3.25102 13.5529,-7.8571 17.4255,-13.43449 2.2575,-3.25101 5.2135,-10.73554 6.405,-16.21531 4.1676,-19.17457 -3.0095,-34.4023 -22.4066,-47.5401 -5.884,-3.98539 -13.2039,-8.03196 -21.5104,-11.89149 -8.1228,-3.77416 -37.0575,-14.84442 -44.1653,-16.89735 z m 28.3851,20.47163 c 2.3901,2.57972 3.6341,5.8673 2.9128,7.69773 -0.6167,1.56479 -1.5514,0.87538 -2.0361,-1.50182 -0.6445,-3.16029 -2.2352,-5.16344 -4.947,-6.22974 -2.8257,-1.11141 -5.171,-0.77722 -7.7351,1.10139 -1.0352,0.75851 -2.0919,1.20488 -2.3482,0.99189 -0.9701,-0.80617 0.023,-2.26336 2.4014,-3.52434 4.3029,-2.28115 8.801,-1.72052 11.7522,1.46489 z m -6.3782,11.293 c 0.5624,0.53234 0.9077,3.24517 0.5339,4.19397 -0.1429,0.36257 -1.0253,1.07342 -1.9608,1.57997 -1.2711,0.68766 -2.0773,0.77223 -3.1882,0.33447 -1.1108,-0.43776 -1.6426,-1.04957 -2.103,-2.41957 -0.3389,-1.00849 -0.4991,-2.13024 -0.3563,-2.49281 0.413,-1.04799 2.4888,-2.67623 3.4016,-2.66776 0.9672,0.009 2.9787,0.81498 3.6733,1.47247 z m 37.7249,26.02442 c 2.8696,4.19862 2.8299,11.79257 -0.091,17.40985 -4.0893,7.86367 -12.1531,11.61412 -16.9165,7.86756 -4.8212,-3.79202 -5.3339,-13.44543 -1.0963,-20.64003 2.0585,-3.49489 4.0854,-5.47368 7.1849,-7.01432 4.5659,-2.26947 8.2989,-1.45681 10.919,2.37694 z m -9.2919,17.00631 c -2.4898,1.64694 -2.2857,5.1889 0.3589,6.231 0.7462,0.29407 1.8974,0.28806 2.5906,-0.0133 2.8168,-1.22425 2.6173,-5.17323 -0.3197,-6.33061 -1.0852,-0.42763 -1.8632,-0.39424 -2.6298,0.11288 z m -71.4043,-49.01184 c 5.6679,7.76971 0.684,22.67681 -8.7686,26.22763 -6.4439,2.42051 -11.3289,-1.38954 -11.9836,-9.34645 -0.392,-4.76455 1.4916,-10.56532 4.7764,-14.70905 5.0184,-6.33101 12.227,-7.31107 15.9758,-2.17213 z m -9.5416,17.03651 c -2.9244,0.8763 -3.0227,4.45895 -0.1534,5.58962 1.6313,0.64281 3.3702,-0.1527 4.0379,-1.84716 0.3923,-0.99554 -0.7701,-3.58679 -1.7891,-3.98839 -0.3029,-0.11933 -1.2459,-0.009 -2.0954,0.24593 z"
       id="path2996"
       style="fill:#1b7c00;fill-opacity:1" />
  </g>
</svg>
