<?xml version="1.0" encoding="UTF-8" standalone="no"?>
<!-- Created with Inkscape (http://www.inkscape.org/) -->

<svg
   xmlns:dc="http://purl.org/dc/elements/1.1/"
   xmlns:cc="http://creativecommons.org/ns#"
   xmlns:rdf="http://www.w3.org/1999/02/22-rdf-syntax-ns#"
   xmlns:svg="http://www.w3.org/2000/svg"
   xmlns="http://www.w3.org/2000/svg"
   version="1.1"
   width="400"
   height="400"
   id="svg2">
  <defs
     id="defs4" />
  <metadata
     id="metadata7">
    <rdf:RDF>
      <cc:Work
         rdf:about="">
        <dc:format>image/svg+xml</dc:format>
        <dc:type
           rdf:resource="http://purl.org/dc/dcmitype/StillImage" />
        <dc:title></dc:title>
      </cc:Work>
    </rdf:RDF>
  </metadata>
  <g
     transform="matrix(-1,0,0,-1,1345.5443,1099.1672)"
     id="layer1">
    <path
       d="m 1163.8724,754.28504 c 1.1774,0.96547 1.5238,2.94866 0.7983,4.57882 -0.2643,0.5939 -1.359,1.89875 -2.433,2.89938 -1.074,1.00081 -2.3174,2.72566 -2.7629,3.83321 -0.797,1.98057 -0.7556,2.58807 2.5002,36.85345 2.1006,22.11056 3.4788,34.82314 3.7714,34.79423 0.7507,-0.0743 2.18,-2.93625 2.9892,-5.98579 0.7226,-2.72291 0.6671,-3.84429 -1.3002,-26.32734 -2.021,-23.09736 -2.0412,-23.53051 -1.2242,-26.36744 2.2568,-7.83685 10.6635,-13.44835 21.8372,-14.57666 4.4342,-0.44869 6.2783,0.0752 6.4519,1.82955 0.1754,1.77336 -0.6978,2.90964 -3.621,4.71086 -4.1274,2.54328 -5.8501,4.47106 -7.1837,8.03836 l -1.1661,3.11934 1.5441,18.8207 c 0.9235,11.25572 1.7194,18.79984 1.9802,18.769 0.2398,-0.0287 2.3433,-0.56187 4.6744,-1.18562 5.6011,-1.4987 14.9939,-2.40687 19.7714,-1.91168 11.6231,1.2047 19.9103,6.42637 28.1564,17.74081 7.9383,10.89215 11.388,13.94658 19.438,17.21079 3.4091,1.38229 6.6096,3.76759 6.7333,5.01819 0.2168,2.19158 -4.7086,4.03337 -9.8439,3.68104 -7.8418,-0.53803 -15.6518,-5.17889 -22.259,-13.22664 -4.8601,-5.91971 -7.2423,-8.03916 -11.7343,-10.44049 -8.9616,-4.79036 -19.706,-4.40468 -30.5335,1.09606 l -3.4592,1.75742 -0.9311,4.37201 c -1.1361,5.33638 -3.897,10.92218 -7.2227,14.61303 l -2.4468,2.71556 4.4551,0.1526 c 30.8206,1.05572 52.5177,9.70724 65.8022,26.23807 1.4445,1.79741 2.7247,3.48842 2.8452,3.75775 0.3793,0.84894 20.8689,-2.58849 36.2874,-6.08774 13.119,-2.97735 29.309,-7.74841 38.8446,-11.44716 2.4258,-0.94093 3.1837,-1.08087 3.4102,-0.62944 0.3034,0.61331 -2.4326,1.76489 -11.8388,4.98421 -15.4507,5.28791 -39.6441,10.95682 -57.8357,13.55181 -5.3191,0.75875 -7.3511,1.21381 -7.3093,1.6368 0.032,0.32228 0.7149,1.71232 1.5173,3.08922 l 1.4598,2.50316 3.258,-0.0145 c 14.6643,-0.065 53.2683,-6.5118 69.3681,-11.58431 1.8453,-0.5814 3.1254,-0.78133 3.3254,-0.51941 0.1786,0.23427 0.229,0.54291 0.1118,0.68592 -0.4154,0.50661 -13.3731,3.8822 -21.7752,5.67265 -13.4861,2.87376 -21.9986,4.15485 -38.3683,5.77415 l -15.2689,1.51039 0.5865,1.17846 c 1.1406,2.29128 3.8477,10.29437 5.212,15.40864 1.7816,6.67835 4.0044,27.69513 3.4912,33.00913 -1.0689,11.07108 -6.1408,24.74619 -11.928,32.16123 l -1.2636,1.61904 1.5849,3.9606 c 4.2298,10.5697 4.9802,23.11724 2.179,36.43094 -0.9319,4.4291 -1.4368,4.9799 -4.8527,5.2927 -9.7618,0.8943 -26.1102,-3.873 -41.1746,-12.007 l -3.0153,-1.6282 -5.1889,1.7655 c -13.113,4.4616 -20.5027,5.9841 -36.7601,7.574 -15.0833,1.475 -19.9844,1.5177 -32.3818,0.2826 l -6.125,-0.6103 -4.6929,3.6465 c -6.1464,4.776 -15.4283,10.5402 -20.9285,12.997 -7.1338,3.1866 -14.7398,4.9963 -17.0229,4.0503 -1.1279,-0.4677 -4.0691,-7.1692 -5.9929,-13.6562 -2.2248,-7.5022 -3.0356,-21.0981 -1.5992,-26.8159 0.082,-0.3269 -1.4261,-2.0699 -3.3518,-3.8734 -8.7135,-8.16139 -14.8006,-18.02412 -18.4818,-29.94566 -1.028,-3.32932 -1.4974,-6.44159 -2.4622,-16.32249 -0.6576,-6.74985 -1.1504,-14.59038 -1.0993,-17.53529 0.089,-5.14607 0.8007,-14.58082 1.2131,-16.084 0.175,-0.63734 -1.9263,-0.52266 -16.0881,0.87823 -17.3573,1.71697 -25.8335,2.13372 -39.77651,1.95591 -8.59005,-0.10961 -21.95806,-0.88112 -22.46472,-1.29653 -0.14302,-0.11733 -0.15408,-0.42986 -0.0245,-0.69458 0.14493,-0.296 1.43927,-0.35075 3.36274,-0.14216 17.07969,1.85228 52.83489,0.70134 70.75569,-2.27767 l 4.6169,-0.76752 0.6839,-2.95945 c 0.376,-1.62766 0.574,-3.10332 0.4398,-3.27907 -0.1341,-0.17586 -3.7668,-0.11163 -8.0724,0.14242 -18.3687,1.08406 -43.51,0.28253 -59.96687,-1.91187 -9.75289,-1.30043 -12.76625,-1.91116 -12.59044,-2.55171 0.12449,-0.45404 1.51133,-0.39315 5.42963,0.23837 19.39639,3.12623 43.29538,4.11008 70.24198,2.89175 l 5.7768,-0.26118 0.89,-2.43046 c 1.6351,-4.46581 5.2863,-10.75545 8.5633,-14.75183 9.2094,-11.2315 23.8443,-19.23506 45.4153,-24.83663 4.1182,-1.06943 8.0668,-2.00231 8.7747,-2.07301 1.1912,-0.11864 0.9838,-0.37892 -2.7703,-3.47358 -4.4138,-3.63834 -7.1922,-7.38432 -9.6035,-12.94771 -1.3633,-3.14602 -1.5,-4.08058 -4.4955,-30.73446 -2.9817,-26.53058 -3.1352,-27.58232 -4.3961,-30.14109 -1.8829,-3.8218 -4.8067,-6.63416 -8.4624,-8.14153 -3.3104,-1.36486 -4.6904,-2.5796 -4.8582,-4.27595 -0.1804,-1.82368 1.4615,-2.72397 5.719,-3.13588 10.9325,-1.05735 20.3189,2.86401 24.0295,10.03954 1.3515,2.61269 1.4288,3.11673 3.9139,25.37642 2.2226,19.91042 2.672,23.02488 3.6435,25.25968 1.2709,2.92287 3.6456,6.40694 4.3214,6.34009 0.6855,-0.0678 -5.7072,-63.92458 -6.7186,-67.1082 -1.1282,-3.55291 -2.4483,-5.39319 -5.4798,-7.63893 -3.1074,-2.30196 -3.6392,-3.99923 -1.8833,-6.00933 1.6444,-1.88252 4.4512,-2.24916 9.1044,-1.18909 7.1456,1.62782 11.488,4.30499 14.7203,9.07534 l 1.919,2.83244 3.7908,35.87984 c 2.085,19.73391 3.9919,36.13187 4.2375,36.43995 0.5685,0.71322 2.9092,0.49746 3.5883,-0.3309 0.3931,-0.47933 -0.3053,-8.95142 -2.9017,-35.19964 -3.1929,-32.2773 -3.3795,-34.76255 -2.8161,-37.4986 0.7365,-3.57485 2.5697,-7.00627 5.0603,-9.47169 5.2207,-5.16744 14.8558,-8.68117 17.6109,-6.42202 z m 43.4131,74.10862 c -0.733,1.47682 1.1892,2.76701 3.5191,2.36201 2.224,-0.38663 2.6755,-1.57355 1.1314,-2.97398 -1.16,-1.05204 -4.0105,-0.6769 -4.6505,0.61197 z m -11.0102,1.08913 c -0.5649,1.1379 1.0977,2.69923 2.7055,2.54022 2.5205,-0.24937 3.6818,-2.20666 2.0856,-3.51543 -0.9265,-0.75973 -4.2668,-0.0798 -4.7911,0.97521 z m -7.7582,2.97101 c 0.036,0.46171 -0.01,1.33596 -0.1059,1.94409 -0.152,0.92329 0.01,1.08674 0.9748,0.99118 0.6364,-0.0629 1.3898,-0.39851 1.6746,-0.74571 1.089,-1.3282 -0.016,-3.28549 -1.7582,-3.11314 -0.4991,0.0493 -0.8295,0.43809 -0.7853,0.92358 z m 29.102,-2.17536 c -0.3381,0.68169 -0.1601,1.10287 0.8347,1.97187 2.3303,2.03561 5.7645,0.71459 4.2035,-1.61688 -1.2389,-1.85035 -4.1927,-2.05844 -5.0382,-0.35499 z m 8.9092,5.59157 c -0.4652,0.68882 -0.4191,1.02529 0.2762,2.02016 2.2417,3.20678 6.0622,1.98601 3.9527,-1.26306 -1.2323,-1.89813 -3.2178,-2.2536 -4.2288,-0.75711 z m 7.3122,7.74813 c -0.2615,1.23443 1.434,3.33386 2.7974,3.46409 1.0926,0.1043 2.0551,-1.38794 1.5672,-2.42986 -1.0972,-2.34263 -3.9444,-3.01763 -4.3646,-1.03423 z m 6.9142,6.71285 c -0.5252,1.91443 2.5419,3.66761 3.7784,2.15969 0.5998,-0.73149 0.5741,-0.92485 -0.259,-1.95765 -1.0196,-1.26438 -3.1939,-1.38914 -3.5196,-0.202 z m 6.6846,4.21664 c -0.307,1.11855 0.9964,2.13957 2.3478,1.8405 1.4695,-0.32524 1.7048,-1.16238 0.5851,-2.08061 -1.0708,-0.87793 -2.662,-0.74758 -2.9329,0.24019 z m -128.6899,20.22004 c -19.9011,3.88512 -32.0514,10.08546 -38.5446,19.66919 -4.1508,6.12653 -6.3943,13.4555 -6.8497,22.37596 -0.3121,6.1139 0.5614,14.91745 1.8589,18.69086 2.1933,6.40015 6.6459,12.42312 13.1047,17.7264 9.8253,8.06754 20.2764,8.97287 47.7906,4.13999 12.8942,-2.26489 28.6432,-3.80885 42.8485,-4.20064 14.6579,-0.40431 26.5837,-1.8352 31.9125,-3.82895 5.466,-2.04512 9.6348,-5.02754 13.424,-9.6039 5.2591,-6.35162 8.4726,-13.17686 9.3726,-19.90696 0.5248,-3.92301 -0.2612,-11.93165 -1.7022,-17.35116 -5.0436,-18.96298 -18.3799,-29.23619 -41.6351,-32.07231 -7.0544,-0.86042 -15.4143,-1.11989 -24.5667,-0.76263 -8.95,0.34937 -39.7477,3.70609 -47.009,5.12367 z m 34.5998,5.2591 c 3.3041,1.20442 5.9115,3.56179 6.1052,5.51965 0.1655,1.67377 -0.9809,1.48698 -2.4972,-0.40693 -2.0159,-2.51773 -4.3455,-3.57401 -7.245,-3.28502 -3.0215,0.30084 -4.9557,1.66864 -6.3797,4.51048 -0.5749,1.14739 -1.3114,2.02686 -1.6366,1.95433 -1.2311,-0.27452 -1.0126,-2.02434 0.528,-4.23188 2.7874,-3.99364 7.0455,-5.54787 11.1253,-4.06063 z m -0.5206,12.95925 c 0.7434,0.21696 2.2888,2.47313 2.3893,3.48794 0.038,0.38783 -0.4224,1.42306 -1.0235,2.30076 -0.8171,1.19202 -1.4959,1.63524 -2.6841,1.75278 -1.1882,0.1175 -1.9406,-0.18414 -2.9755,-1.19297 -0.7619,-0.74263 -1.4164,-1.6676 -1.4548,-2.05538 -0.1109,-1.12096 0.9929,-3.51716 1.8089,-3.92625 0.8647,-0.43345 3.0223,-0.63442 3.9405,-0.36645 z m 45.4444,5.93681 c 4.4696,2.426 7.9004,9.20092 7.8653,15.53213 -0.049,8.86325 -5.5123,15.8808 -11.4606,14.7214 -6.0205,-1.17346 -10.8828,-9.52867 -10.3961,-17.8643 0.2364,-4.04917 1.1366,-6.73495 3.1913,-9.52045 3.0267,-4.10329 6.7191,-5.08406 10.8002,-2.86883 z m -0.5054,19.37262 c -1.4637,2.6018 0.3346,5.66014 3.1633,5.38029 0.7982,-0.0789 1.8197,-0.60972 2.2989,-1.19426 1.9475,-2.37495 -0.032,-5.79754 -3.1739,-5.4868 -1.1607,0.11482 -1.8377,0.49963 -2.2884,1.30075 z m -85.9031,-11.01789 c 8.5894,4.32619 10.9589,19.86473 4.169,27.33854 -4.6287,5.09485 -10.7142,3.93447 -14.9285,-2.84645 -2.5234,-4.06039 -3.4951,-10.08141 -2.4637,-15.26761 1.5755,-7.92362 7.5421,-12.08585 13.2232,-9.22448 z m -0.7138,19.51347 c -2.2021,2.11447 -0.6543,5.34704 2.4147,5.04343 1.7449,-0.17262 2.929,-1.67412 2.7497,-3.48654 -0.1053,-1.06484 -2.3223,-2.83988 -3.4123,-2.73211 -0.324,0.0321 -1.1126,0.56065 -1.7521,1.17522 z"
       id="path2996"
       style="fill:#ffff2e;fill-opacity:1" />
  </g>
</svg>
